<svg id="Illustrations" xmlns="http://www.w3.org/2000/svg" viewBox="0 0 480 480"><g><g fill="var(--ill-dot)"><path d="M199.89,305.1c.7,0,1.27.57,1.27,1.27,0,.7-.57,1.27-1.27,1.27s-1.27-.57-1.27-1.27c0-.7.57-1.27,1.27-1.27Z"/><path d="M199.89,311.49c.7,0,1.27.57,1.27,1.27s-.57,1.27-1.27,1.27-1.27-.57-1.27-1.27.57-1.27,1.27-1.27Z"/><path d="M199.89,317.89c.7,0,1.27.57,1.27,1.27,0,.7-.57,1.27-1.27,1.27s-1.27-.57-1.27-1.27c0-.7.57-1.27,1.27-1.27Z"/><path d="M199.89,324.29c.7,0,1.27.57,1.27,1.27s-.57,1.27-1.27,1.27-1.27-.57-1.27-1.27.57-1.27,1.27-1.27Z"/><path d="M199.89,330.69c.7,0,1.27.57,1.27,1.27s-.57,1.27-1.27,1.27-1.27-.57-1.27-1.27c0-.7.57-1.27,1.27-1.27Z"/><path d="M199.89,337.09c.7,0,1.27.57,1.27,1.27,0,.7-.57,1.27-1.27,1.27s-1.27-.57-1.27-1.27c0-.7.57-1.27,1.27-1.27Z"/><path d="M199.89,343.49c.7,0,1.27.57,1.27,1.27s-.57,1.27-1.27,1.27-1.27-.57-1.27-1.27c0-.7.57-1.27,1.27-1.27Z"/><path d="M199.89,349.88c.7,0,1.27.57,1.27,1.27,0,.7-.57,1.27-1.27,1.27s-1.27-.57-1.27-1.27c0-.7.57-1.27,1.27-1.27Z"/><path d="M199.89,356.28c.7,0,1.27.57,1.27,1.27s-.57,1.27-1.27,1.27-1.27-.57-1.27-1.27.57-1.27,1.27-1.27Z"/><path d="M199.89,362.68c.7,0,1.27.57,1.27,1.27,0,.7-.57,1.27-1.27,1.27s-1.27-.57-1.27-1.27c0-.7.57-1.27,1.27-1.27Z"/><path d="M211.61,305.1c.7,0,1.27.57,1.27,1.27s-.57,1.27-1.27,1.27-1.27-.57-1.27-1.27c0-.7.57-1.27,1.27-1.27Z"/><path d="M211.61,311.49c.7,0,1.27.57,1.27,1.27,0,.7-.57,1.27-1.27,1.27s-1.27-.57-1.27-1.27.57-1.27,1.27-1.27Z"/><path d="M211.61,317.89c.7,0,1.27.57,1.27,1.27s-.57,1.27-1.27,1.27-1.27-.57-1.27-1.27c0-.7.57-1.27,1.27-1.27Z"/><path d="M211.61,324.29c.7,0,1.27.57,1.27,1.27,0,.7-.57,1.27-1.27,1.27s-1.27-.57-1.27-1.27.57-1.27,1.27-1.27Z"/><path d="M211.61,330.69c.7,0,1.27.57,1.27,1.27s-.57,1.27-1.27,1.27-1.27-.57-1.27-1.27c0-.7.57-1.27,1.27-1.27Z"/><path d="M211.61,337.09c.7,0,1.27.57,1.27,1.27,0,.7-.57,1.27-1.27,1.27s-1.27-.57-1.27-1.27.57-1.27,1.27-1.27Z"/><path d="M211.61,343.49c.7,0,1.27.57,1.27,1.27,0,.7-.57,1.27-1.27,1.27s-1.27-.57-1.27-1.27c0-.7.57-1.27,1.27-1.27Z"/><path d="M211.61,349.88c.7,0,1.27.57,1.27,1.27s-.57,1.27-1.27,1.27-1.27-.57-1.27-1.27c0-.7.57-1.27,1.27-1.27Z"/><path d="M211.61,356.28c.7,0,1.27.57,1.27,1.27,0,.7-.57,1.27-1.27,1.27s-1.27-.57-1.27-1.27c0-.7.57-1.27,1.27-1.27Z"/><path d="M211.61,362.68c.7,0,1.27.57,1.27,1.27,0,.7-.57,1.27-1.27,1.27s-1.27-.57-1.27-1.27c0-.7.57-1.27,1.27-1.27Z"/><path d="M217.46,305.1c.7,0,1.27.57,1.27,1.27s-.57,1.27-1.27,1.27-1.27-.57-1.27-1.27c0-.7.57-1.27,1.27-1.27Z"/><path d="M217.46,311.49c.7,0,1.27.57,1.27,1.27,0,.7-.57,1.27-1.27,1.27s-1.27-.57-1.27-1.27c0-.7.57-1.27,1.27-1.27Z"/><path d="M217.46,317.89c.7,0,1.27.57,1.27,1.27,0,.7-.57,1.27-1.27,1.27s-1.27-.57-1.27-1.27.57-1.27,1.27-1.27Z"/><path d="M217.46,324.29c.7,0,1.27.57,1.27,1.27,0,.7-.57,1.27-1.27,1.27s-1.27-.57-1.27-1.27c0-.7.57-1.27,1.27-1.27Z"/><path d="M217.46,330.69c.7,0,1.27.57,1.27,1.27s-.57,1.27-1.27,1.27-1.27-.57-1.27-1.27c0-.7.57-1.27,1.27-1.27Z"/><path d="M217.46,337.09c.7,0,1.27.57,1.27,1.27,0,.7-.57,1.27-1.27,1.27s-1.27-.57-1.27-1.27.57-1.27,1.27-1.27Z"/><path d="M217.46,343.49c.7,0,1.27.57,1.27,1.27,0,.7-.57,1.27-1.27,1.27s-1.27-.57-1.27-1.27.57-1.27,1.27-1.27Z"/><path d="M217.46,349.88c.7,0,1.27.57,1.27,1.27s-.57,1.27-1.27,1.27-1.27-.57-1.27-1.27c0-.7.57-1.27,1.27-1.27Z"/><path d="M217.46,356.28c.7,0,1.27.57,1.27,1.27,0,.7-.57,1.27-1.27,1.27s-1.27-.57-1.27-1.27c0-.7.57-1.27,1.27-1.27Z"/><path d="M217.46,362.68c.7,0,1.27.57,1.27,1.27,0,.7-.57,1.27-1.27,1.27s-1.27-.57-1.27-1.27.57-1.27,1.27-1.27Z"/><path d="M223.32,305.1c.7,0,1.27.57,1.27,1.27s-.57,1.27-1.27,1.27-1.27-.57-1.27-1.27c0-.7.57-1.27,1.27-1.27Z"/><path d="M223.32,311.49c.7,0,1.27.57,1.27,1.27,0,.7-.57,1.27-1.27,1.27s-1.27-.57-1.27-1.27.57-1.27,1.27-1.27Z"/><path d="M223.32,317.89c.7,0,1.27.57,1.27,1.27s-.57,1.27-1.27,1.27-1.27-.57-1.27-1.27c0-.7.57-1.27,1.27-1.27Z"/><path d="M223.32,324.29c.7,0,1.27.57,1.27,1.27,0,.7-.57,1.27-1.27,1.27s-1.27-.57-1.27-1.27c0-.7.57-1.27,1.27-1.27Z"/><path d="M223.32,330.69c.7,0,1.27.57,1.27,1.27s-.57,1.27-1.27,1.27-1.27-.57-1.27-1.27.57-1.27,1.27-1.27Z"/><path d="M223.32,337.09c.7,0,1.27.57,1.27,1.27,0,.7-.57,1.27-1.27,1.27s-1.27-.57-1.27-1.27c0-.7.57-1.27,1.27-1.27Z"/><path d="M223.32,343.49c.7,0,1.27.57,1.27,1.27,0,.7-.57,1.27-1.27,1.27s-1.27-.57-1.27-1.27c0-.7.57-1.27,1.27-1.27Z"/><path d="M223.32,349.88c.7,0,1.27.57,1.27,1.27,0,.7-.57,1.27-1.27,1.27s-1.27-.57-1.27-1.27c0-.7.57-1.27,1.27-1.27Z"/><path d="M223.32,356.28c.7,0,1.27.57,1.27,1.27,0,.7-.57,1.27-1.27,1.27s-1.27-.57-1.27-1.27.57-1.27,1.27-1.27Z"/><path d="M223.32,362.68c.7,0,1.27.57,1.27,1.27s-.57,1.27-1.27,1.27-1.27-.57-1.27-1.27c0-.7.57-1.27,1.27-1.27Z"/><path d="M229.18,305.1c.7,0,1.27.57,1.27,1.27,0,.7-.57,1.27-1.27,1.27s-1.27-.57-1.27-1.27.57-1.27,1.27-1.27Z"/><path d="M229.18,311.49c.7,0,1.27.57,1.27,1.27s-.57,1.27-1.27,1.27-1.27-.57-1.27-1.27c0-.7.57-1.27,1.27-1.27Z"/><path d="M229.18,317.89c.7,0,1.27.57,1.27,1.27,0,.7-.57,1.27-1.27,1.27s-1.27-.57-1.27-1.27.57-1.27,1.27-1.27Z"/><path d="M229.18,324.29c.7,0,1.27.57,1.27,1.27,0,.7-.57,1.27-1.27,1.27s-1.27-.57-1.27-1.27c0-.7.57-1.27,1.27-1.27Z"/><path d="M229.18,330.69c.7,0,1.27.57,1.27,1.27s-.57,1.27-1.27,1.27-1.27-.57-1.27-1.27.57-1.27,1.27-1.27Z"/><path d="M229.18,337.09c.7,0,1.27.57,1.27,1.27s-.57,1.27-1.27,1.27-1.27-.57-1.27-1.27c0-.7.57-1.27,1.27-1.27Z"/><path d="M229.18,343.49c.7,0,1.27.57,1.27,1.27,0,.7-.57,1.27-1.27,1.27s-1.27-.57-1.27-1.27c0-.7.57-1.27,1.27-1.27Z"/><path d="M229.18,349.88c.7,0,1.27.57,1.27,1.27,0,.7-.57,1.27-1.27,1.27s-1.27-.57-1.27-1.27.57-1.27,1.27-1.27Z"/><path d="M229.18,356.28c.7,0,1.27.57,1.27,1.27s-.57,1.27-1.27,1.27-1.27-.57-1.27-1.27c0-.7.57-1.27,1.27-1.27Z"/><path d="M229.18,362.68c.7,0,1.27.57,1.27,1.27,0,.7-.57,1.27-1.27,1.27s-1.27-.57-1.27-1.27c0-.7.57-1.27,1.27-1.27Z"/><path d="M235.04,305.1c.7,0,1.27.57,1.27,1.27,0,.7-.57,1.27-1.27,1.27s-1.27-.57-1.27-1.27c0-.7.57-1.27,1.27-1.27Z"/><path d="M235.04,311.49c.7,0,1.27.57,1.27,1.27s-.57,1.27-1.27,1.27-1.27-.57-1.27-1.27c0-.7.57-1.27,1.27-1.27Z"/><path d="M235.04,317.89c.7,0,1.27.57,1.27,1.27,0,.7-.57,1.27-1.27,1.27s-1.27-.57-1.27-1.27c0-.7.57-1.27,1.27-1.27Z"/><path d="M235.04,324.29c.7,0,1.27.57,1.27,1.27,0,.7-.57,1.27-1.27,1.27s-1.27-.57-1.27-1.27.57-1.27,1.27-1.27Z"/><path d="M235.04,330.69c.7,0,1.27.57,1.27,1.27s-.57,1.27-1.27,1.27-1.27-.57-1.27-1.27c0-.7.57-1.27,1.27-1.27Z"/><path d="M235.04,337.09c.7,0,1.27.57,1.27,1.27,0,.7-.57,1.27-1.27,1.27s-1.27-.57-1.27-1.27c0-.7.57-1.27,1.27-1.27Z"/><path d="M235.04,343.49c.7,0,1.27.57,1.27,1.27,0,.7-.57,1.27-1.27,1.27s-1.27-.57-1.27-1.27.57-1.27,1.27-1.27Z"/><path d="M235.04,349.88c.7,0,1.27.57,1.27,1.27,0,.7-.57,1.27-1.27,1.27s-1.27-.57-1.27-1.27c0-.7.57-1.27,1.27-1.27Z"/><path d="M235.04,356.28c.7,0,1.27.57,1.27,1.27s-.57,1.27-1.27,1.27-1.27-.57-1.27-1.27c0-.7.57-1.27,1.27-1.27Z"/><path d="M235.04,362.68c.7,0,1.27.57,1.27,1.27,0,.7-.57,1.27-1.27,1.27s-1.27-.57-1.27-1.27c0-.7.57-1.27,1.27-1.27Z"/><path d="M240.9,305.1c.7,0,1.27.57,1.27,1.27s-.57,1.27-1.27,1.27-1.27-.57-1.27-1.27.57-1.27,1.27-1.27Z"/><path d="M240.9,311.49c.7,0,1.27.57,1.27,1.27,0,.7-.57,1.27-1.27,1.27s-1.27-.57-1.27-1.27c0-.7.57-1.27,1.27-1.27Z"/><path d="M240.9,317.89c.7,0,1.27.57,1.27,1.27,0,.7-.57,1.27-1.27,1.27s-1.27-.57-1.27-1.27.57-1.27,1.27-1.27Z"/><path d="M240.9,324.29c.7,0,1.27.57,1.27,1.27s-.57,1.27-1.27,1.27-1.27-.57-1.27-1.27c0-.7.57-1.27,1.27-1.27Z"/><path d="M240.9,330.69c.7,0,1.27.57,1.27,1.27,0,.7-.57,1.27-1.27,1.27s-1.27-.57-1.27-1.27.57-1.27,1.27-1.27Z"/><path d="M240.9,337.09c.7,0,1.27.57,1.27,1.27,0,.7-.57,1.27-1.27,1.27s-1.27-.57-1.27-1.27c0-.7.57-1.27,1.27-1.27Z"/><path d="M240.9,343.49c.7,0,1.27.57,1.27,1.27s-.57,1.27-1.27,1.27-1.27-.57-1.27-1.27c0-.7.57-1.27,1.27-1.27Z"/><path d="M240.9,349.88c.7,0,1.27.57,1.27,1.27s-.57,1.27-1.27,1.27-1.27-.57-1.27-1.27.57-1.27,1.27-1.27Z"/><path d="M240.9,356.28c.7,0,1.27.57,1.27,1.27,0,.7-.57,1.27-1.27,1.27s-1.27-.57-1.27-1.27c0-.7.57-1.27,1.27-1.27Z"/><path d="M240.9,362.68c.7,0,1.27.57,1.27,1.27,0,.7-.57,1.27-1.27,1.27s-1.27-.57-1.27-1.27.57-1.27,1.27-1.27Z"/><path d="M246.76,305.1c.7,0,1.27.57,1.27,1.27s-.57,1.27-1.27,1.27-1.27-.57-1.27-1.27c0-.7.57-1.27,1.27-1.27Z"/><path d="M246.76,311.49c.7,0,1.27.57,1.27,1.27,0,.7-.57,1.27-1.27,1.27s-1.27-.57-1.27-1.27.57-1.27,1.27-1.27Z"/><path d="M246.76,317.89c.7,0,1.27.57,1.27,1.27s-.57,1.27-1.27,1.27-1.27-.57-1.27-1.27c0-.7.57-1.27,1.27-1.27Z"/><path d="M246.76,324.29c.7,0,1.27.57,1.27,1.27,0,.7-.57,1.27-1.27,1.27s-1.27-.57-1.27-1.27c0-.7.57-1.27,1.27-1.27Z"/><path d="M246.76,330.69c.7,0,1.27.57,1.27,1.27s-.57,1.27-1.27,1.27-1.27-.57-1.27-1.27.57-1.27,1.27-1.27Z"/><path d="M246.76,337.09c.7,0,1.27.57,1.27,1.27s-.57,1.27-1.27,1.27-1.27-.57-1.27-1.27c0-.7.57-1.27,1.27-1.27Z"/><path d="M246.76,343.49c.7,0,1.27.57,1.27,1.27,0,.7-.57,1.27-1.27,1.27s-1.27-.57-1.27-1.27c0-.7.57-1.27,1.27-1.27Z"/><path d="M246.76,349.88c.7,0,1.27.57,1.27,1.27s-.57,1.27-1.27,1.27-1.27-.57-1.27-1.27c0-.7.57-1.27,1.27-1.27Z"/><path d="M246.76,356.28c.7,0,1.27.57,1.27,1.27,0,.7-.57,1.27-1.27,1.27s-1.27-.57-1.27-1.27.57-1.27,1.27-1.27Z"/><path d="M246.76,362.68c.7,0,1.27.57,1.27,1.27s-.57,1.27-1.27,1.27-1.27-.57-1.27-1.27c0-.7.57-1.27,1.27-1.27Z"/><path d="M252.62,305.1c.7,0,1.27.57,1.27,1.27,0,.7-.57,1.27-1.27,1.27s-1.27-.57-1.27-1.27.57-1.27,1.27-1.27Z"/><path d="M252.62,311.49c.7,0,1.27.57,1.27,1.27s-.57,1.27-1.27,1.27-1.27-.57-1.27-1.27c0-.7.57-1.27,1.27-1.27Z"/><path d="M252.62,317.89c.7,0,1.27.57,1.27,1.27s-.57,1.27-1.27,1.27-1.27-.57-1.27-1.27c0-.7.57-1.27,1.27-1.27Z"/><path d="M252.62,324.29c.7,0,1.27.57,1.27,1.27,0,.7-.57,1.27-1.27,1.27s-1.27-.57-1.27-1.27.57-1.27,1.27-1.27Z"/><path d="M252.62,330.69c.7,0,1.27.57,1.27,1.27,0,.7-.57,1.27-1.27,1.27s-1.27-.57-1.27-1.27c0-.7.57-1.27,1.27-1.27Z"/><path d="M252.62,337.09c.7,0,1.27.57,1.27,1.27s-.57,1.27-1.27,1.27-1.27-.57-1.27-1.27c0-.7.57-1.27,1.27-1.27Z"/><path d="M252.62,343.49c.7,0,1.27.57,1.27,1.27,0,.7-.57,1.27-1.27,1.27s-1.27-.57-1.27-1.27c0-.7.57-1.27,1.27-1.27Z"/><path d="M252.62,349.88c.7,0,1.27.57,1.27,1.27,0,.7-.57,1.27-1.27,1.27s-1.27-.57-1.27-1.27.57-1.27,1.27-1.27Z"/><path d="M252.62,356.28c.7,0,1.27.57,1.27,1.27s-.57,1.27-1.27,1.27-1.27-.57-1.27-1.27c0-.7.57-1.27,1.27-1.27Z"/><path d="M252.62,362.68c.7,0,1.27.57,1.27,1.27s-.57,1.27-1.27,1.27-1.27-.57-1.27-1.27c0-.7.57-1.27,1.27-1.27Z"/><path d="M258.48,317.89c.7,0,1.27.57,1.27,1.27s-.57,1.27-1.27,1.27-1.27-.57-1.27-1.27c0-.7.57-1.27,1.27-1.27Z"/><path d="M258.48,324.29c.7,0,1.27.57,1.27,1.27,0,.7-.57,1.27-1.27,1.27s-1.27-.57-1.27-1.27.57-1.27,1.27-1.27Z"/><path d="M258.48,330.69c.7,0,1.27.57,1.27,1.27s-.57,1.27-1.27,1.27-1.27-.57-1.27-1.27c0-.7.57-1.27,1.27-1.27Z"/><path d="M258.48,337.09c.7,0,1.27.57,1.27,1.27,0,.7-.57,1.27-1.27,1.27s-1.27-.57-1.27-1.27c0-.7.57-1.27,1.27-1.27Z"/><path d="M258.48,343.49c.7,0,1.27.57,1.27,1.27,0,.7-.57,1.27-1.27,1.27s-1.27-.57-1.27-1.27.57-1.27,1.27-1.27Z"/><path d="M258.48,349.88c.7,0,1.27.57,1.27,1.27s-.57,1.27-1.27,1.27-1.27-.57-1.27-1.27c0-.7.57-1.27,1.27-1.27Z"/><path d="M258.48,356.28c.7,0,1.27.57,1.27,1.27,0,.7-.57,1.27-1.27,1.27s-1.27-.57-1.27-1.27c0-.7.57-1.27,1.27-1.27Z"/><path d="M258.48,362.68c.7,0,1.27.57,1.27,1.27s-.57,1.27-1.27,1.27-1.27-.57-1.27-1.27c0-.7.57-1.27,1.27-1.27Z"/><path d="M264.34,349.88c.7,0,1.27.57,1.27,1.27,0,.7-.57,1.27-1.27,1.27s-1.27-.57-1.27-1.27c0-.7.57-1.27,1.27-1.27Z"/><path d="M264.34,356.28c.7,0,1.27.57,1.27,1.27s-.57,1.27-1.27,1.27-1.27-.57-1.27-1.27c0-.7.57-1.27,1.27-1.27Z"/><path d="M264.34,362.68c.7,0,1.27.57,1.27,1.27,0,.7-.57,1.27-1.27,1.27s-1.27-.57-1.27-1.27.57-1.27,1.27-1.27Z"/><path d="M205.75,305.1c.7,0,1.27.57,1.27,1.27,0,.7-.57,1.27-1.27,1.27s-1.27-.57-1.27-1.27.57-1.27,1.27-1.27Z"/><path d="M205.75,311.49c.7,0,1.27.57,1.27,1.27,0,.7-.57,1.27-1.27,1.27s-1.27-.57-1.27-1.27c0-.7.57-1.27,1.27-1.27Z"/><path d="M205.75,317.89c.7,0,1.27.57,1.27,1.27,0,.7-.57,1.27-1.27,1.27s-1.27-.57-1.27-1.27c0-.7.57-1.27,1.27-1.27Z"/><path d="M205.75,324.29c.7,0,1.27.57,1.27,1.27s-.57,1.27-1.27,1.27-1.27-.57-1.27-1.27.57-1.27,1.27-1.27Z"/><path d="M205.75,330.69c.7,0,1.27.57,1.27,1.27,0,.7-.57,1.27-1.27,1.27s-1.27-.57-1.27-1.27.57-1.27,1.27-1.27Z"/><path d="M205.75,337.09c.7,0,1.27.57,1.27,1.27s-.57,1.27-1.27,1.27-1.27-.57-1.27-1.27c0-.7.57-1.27,1.27-1.27Z"/><path d="M205.75,343.49c.7,0,1.27.57,1.27,1.27,0,.7-.57,1.27-1.27,1.27s-1.27-.57-1.27-1.27c0-.7.57-1.27,1.27-1.27Z"/><path d="M205.75,349.88c.7,0,1.27.57,1.27,1.27,0,.7-.57,1.27-1.27,1.27s-1.27-.57-1.27-1.27.57-1.27,1.27-1.27Z"/><path d="M205.75,356.28c.7,0,1.27.57,1.27,1.27,0,.7-.57,1.27-1.27,1.27s-1.27-.57-1.27-1.27c0-.7.57-1.27,1.27-1.27Z"/><path d="M205.75,362.68c.7,0,1.27.57,1.27,1.27,0,.7-.57,1.27-1.27,1.27s-1.27-.57-1.27-1.27c0-.7.57-1.27,1.27-1.27Z"/><path d="M199.89,369.3c.7,0,1.27.57,1.27,1.27,0,.7-.57,1.27-1.27,1.27s-1.27-.57-1.27-1.27c0-.7.57-1.27,1.27-1.27Z"/><path d="M199.89,375.7c.7,0,1.27.57,1.27,1.27,0,.7-.57,1.27-1.27,1.27s-1.27-.57-1.27-1.27.57-1.27,1.27-1.27Z"/><path d="M199.89,382.1c.7,0,1.27.57,1.27,1.27s-.57,1.27-1.27,1.27-1.27-.57-1.27-1.27c0-.7.57-1.27,1.27-1.27Z"/><path d="M199.89,388.5c.7,0,1.27.57,1.27,1.27,0,.7-.57,1.27-1.27,1.27s-1.27-.57-1.27-1.27c0-.7.57-1.27,1.27-1.27Z"/><path d="M199.89,394.9c.7,0,1.27.57,1.27,1.27,0,.7-.57,1.27-1.27,1.27s-1.27-.57-1.27-1.27.57-1.27,1.27-1.27Z"/><path d="M199.89,401.29c.7,0,1.27.57,1.27,1.27,0,.7-.57,1.27-1.27,1.27s-1.27-.57-1.27-1.27c0-.7.57-1.27,1.27-1.27Z"/><path d="M199.89,407.69c.7,0,1.27.57,1.27,1.27s-.57,1.27-1.27,1.27-1.27-.57-1.27-1.27.57-1.27,1.27-1.27Z"/><path d="M211.61,369.3c.7,0,1.27.57,1.27,1.27s-.57,1.27-1.27,1.27-1.27-.57-1.27-1.27c0-.7.57-1.27,1.27-1.27Z"/><path d="M217.46,369.3c.7,0,1.27.57,1.27,1.27s-.57,1.27-1.27,1.27-1.27-.57-1.27-1.27.57-1.27,1.27-1.27Z"/><path d="M217.46,375.7c.7,0,1.27.57,1.27,1.27,0,.7-.57,1.27-1.27,1.27s-1.27-.57-1.27-1.27c0-.7.57-1.27,1.27-1.27Z"/><path d="M217.46,382.1c.7,0,1.27.57,1.27,1.27,0,.7-.57,1.27-1.27,1.27s-1.27-.57-1.27-1.27c0-.7.57-1.27,1.27-1.27Z"/><path d="M217.46,388.5c.7,0,1.27.57,1.27,1.27s-.57,1.27-1.27,1.27-1.27-.57-1.27-1.27c0-.7.57-1.27,1.27-1.27Z"/><path d="M217.46,394.9c.7,0,1.27.57,1.27,1.27,0,.7-.57,1.27-1.27,1.27s-1.27-.57-1.27-1.27c0-.7.57-1.27,1.27-1.27Z"/><path d="M217.46,401.29c.7,0,1.27.57,1.27,1.27s-.57,1.27-1.27,1.27-1.27-.57-1.27-1.27c0-.7.57-1.27,1.27-1.27Z"/><path d="M217.46,407.69c.7,0,1.27.57,1.27,1.27,0,.7-.57,1.27-1.27,1.27s-1.27-.57-1.27-1.27c0-.7.57-1.27,1.27-1.27Z"/><path d="M223.32,369.3c.7,0,1.27.57,1.27,1.27s-.57,1.27-1.27,1.27-1.27-.57-1.27-1.27.57-1.27,1.27-1.27Z"/><path d="M223.32,375.7c.7,0,1.27.57,1.27,1.27,0,.7-.57,1.27-1.27,1.27s-1.27-.57-1.27-1.27c0-.7.57-1.27,1.27-1.27Z"/><path d="M223.32,382.1c.7,0,1.27.57,1.27,1.27s-.57,1.27-1.27,1.27-1.27-.57-1.27-1.27.57-1.27,1.27-1.27Z"/><path d="M223.32,388.5c.7,0,1.27.57,1.27,1.27,0,.7-.57,1.27-1.27,1.27s-1.27-.57-1.27-1.27c0-.7.57-1.27,1.27-1.27Z"/><path d="M223.32,394.9c.7,0,1.27.57,1.27,1.27,0,.7-.57,1.27-1.27,1.27s-1.27-.57-1.27-1.27c0-.7.57-1.27,1.27-1.27Z"/><path d="M223.32,401.29c.7,0,1.27.57,1.27,1.27s-.57,1.27-1.27,1.27-1.27-.57-1.27-1.27c0-.7.57-1.27,1.27-1.27Z"/><path d="M223.32,407.69c.7,0,1.27.57,1.27,1.27,0,.7-.57,1.27-1.27,1.27s-1.27-.57-1.27-1.27c0-.7.57-1.27,1.27-1.27Z"/><path d="M229.18,369.3c.7,0,1.27.57,1.27,1.27,0,.7-.57,1.27-1.27,1.27s-1.27-.57-1.27-1.27.57-1.27,1.27-1.27Z"/><path d="M229.18,375.7c.7,0,1.27.57,1.27,1.27,0,.7-.57,1.27-1.27,1.27s-1.27-.57-1.27-1.27c0-.7.57-1.27,1.27-1.27Z"/><path d="M229.18,382.1c.7,0,1.27.57,1.27,1.27,0,.7-.57,1.27-1.27,1.27s-1.27-.57-1.27-1.27c0-.7.57-1.27,1.27-1.27Z"/><path d="M229.18,388.5c.7,0,1.27.57,1.27,1.27,0,.7-.57,1.27-1.27,1.27s-1.27-.57-1.27-1.27.57-1.27,1.27-1.27Z"/><path d="M229.18,394.9c.7,0,1.27.57,1.27,1.27,0,.7-.57,1.27-1.27,1.27s-1.27-.57-1.27-1.27c0-.7.57-1.27,1.27-1.27Z"/><path d="M229.18,401.29c.7,0,1.27.57,1.27,1.27,0,.7-.57,1.27-1.27,1.27s-1.27-.57-1.27-1.27c0-.7.57-1.27,1.27-1.27Z"/><path d="M229.18,407.69c.7,0,1.27.57,1.27,1.27s-.57,1.27-1.27,1.27-1.27-.57-1.27-1.27c0-.7.57-1.27,1.27-1.27Z"/><path d="M235.04,369.3c.7,0,1.27.57,1.27,1.27s-.57,1.27-1.27,1.27-1.27-.57-1.27-1.27c0-.7.57-1.27,1.27-1.27Z"/><path d="M235.04,375.7c.7,0,1.27.57,1.27,1.27,0,.7-.57,1.27-1.27,1.27s-1.27-.57-1.27-1.27c0-.7.57-1.27,1.27-1.27Z"/><path d="M235.04,382.1c.7,0,1.27.57,1.27,1.27s-.57,1.27-1.27,1.27-1.27-.57-1.27-1.27.57-1.27,1.27-1.27Z"/><path d="M235.04,388.5c.7,0,1.27.57,1.27,1.27,0,.7-.57,1.27-1.27,1.27s-1.27-.57-1.27-1.27c0-.7.57-1.27,1.27-1.27Z"/><path d="M235.04,394.9c.7,0,1.27.57,1.27,1.27s-.57,1.27-1.27,1.27-1.27-.57-1.27-1.27.57-1.27,1.27-1.27Z"/><path d="M235.04,401.29c.7,0,1.27.57,1.27,1.27,0,.7-.57,1.27-1.27,1.27s-1.27-.57-1.27-1.27c0-.7.57-1.27,1.27-1.27Z"/><path d="M235.04,407.69c.7,0,1.27.57,1.27,1.27s-.57,1.27-1.27,1.27-1.27-.57-1.27-1.27c0-.7.57-1.27,1.27-1.27Z"/><path d="M240.9,369.3c.7,0,1.27.57,1.27,1.27,0,.7-.57,1.27-1.27,1.27s-1.27-.57-1.27-1.27c0-.7.57-1.27,1.27-1.27Z"/><path d="M240.9,375.7c.7,0,1.27.57,1.27,1.27s-.57,1.27-1.27,1.27-1.27-.57-1.27-1.27c0-.7.57-1.27,1.27-1.27Z"/><path d="M240.9,382.1c.7,0,1.27.57,1.27,1.27,0,.7-.57,1.27-1.27,1.27s-1.27-.57-1.27-1.27.57-1.27,1.27-1.27Z"/><path d="M240.9,388.5c.7,0,1.27.57,1.27,1.27,0,.7-.57,1.27-1.27,1.27s-1.27-.57-1.27-1.27c0-.7.57-1.27,1.27-1.27Z"/><path d="M240.9,394.9c.7,0,1.27.57,1.27,1.27,0,.7-.57,1.27-1.27,1.27s-1.27-.57-1.27-1.27c0-.7.57-1.27,1.27-1.27Z"/><path d="M240.9,401.29c.7,0,1.27.57,1.27,1.27,0,.7-.57,1.27-1.27,1.27s-1.27-.57-1.27-1.27.57-1.27,1.27-1.27Z"/><path d="M240.9,407.69c.7,0,1.27.57,1.27,1.27,0,.7-.57,1.27-1.27,1.27s-1.27-.57-1.27-1.27c0-.7.57-1.27,1.27-1.27Z"/><path d="M246.76,369.3c.7,0,1.27.57,1.27,1.27s-.57,1.27-1.27,1.27-1.27-.57-1.27-1.27.57-1.27,1.27-1.27Z"/><path d="M246.76,375.7c.7,0,1.27.57,1.27,1.27,0,.7-.57,1.27-1.27,1.27s-1.27-.57-1.27-1.27.57-1.27,1.27-1.27Z"/><path d="M246.76,382.1c.7,0,1.27.57,1.27,1.27,0,.7-.57,1.27-1.27,1.27s-1.27-.57-1.27-1.27c0-.7.57-1.27,1.27-1.27Z"/><path d="M246.76,388.5c.7,0,1.27.57,1.27,1.27s-.57,1.27-1.27,1.27-1.27-.57-1.27-1.27c0-.7.57-1.27,1.27-1.27Z"/><path d="M246.76,394.9c.7,0,1.27.57,1.27,1.27,0,.7-.57,1.27-1.27,1.27s-1.27-.57-1.27-1.27.57-1.27,1.27-1.27Z"/><path d="M246.76,401.29c.7,0,1.27.57,1.27,1.27,0,.7-.57,1.27-1.27,1.27s-1.27-.57-1.27-1.27c0-.7.57-1.27,1.27-1.27Z"/><path d="M246.76,407.69c.7,0,1.27.57,1.27,1.27,0,.7-.57,1.27-1.27,1.27s-1.27-.57-1.27-1.27.57-1.27,1.27-1.27Z"/><path d="M252.62,369.3c.7,0,1.27.57,1.27,1.27s-.57,1.27-1.27,1.27-1.27-.57-1.27-1.27c0-.7.57-1.27,1.27-1.27Z"/><path d="M252.62,375.7c.7,0,1.27.57,1.27,1.27,0,.7-.57,1.27-1.27,1.27s-1.27-.57-1.27-1.27.57-1.27,1.27-1.27Z"/><path d="M252.62,382.1c.7,0,1.27.57,1.27,1.27,0,.7-.57,1.27-1.27,1.27s-1.27-.57-1.27-1.27c0-.7.57-1.27,1.27-1.27Z"/><path d="M252.62,388.5c.7,0,1.27.57,1.27,1.27s-.57,1.27-1.27,1.27-1.27-.57-1.27-1.27c0-.7.57-1.27,1.27-1.27Z"/><path d="M252.62,394.9c.7,0,1.27.57,1.27,1.27,0,.7-.57,1.27-1.27,1.27s-1.27-.57-1.27-1.27c0-.7.57-1.27,1.27-1.27Z"/><path d="M252.62,401.29c.7,0,1.27.57,1.27,1.27,0,.7-.57,1.27-1.27,1.27s-1.27-.57-1.27-1.27.57-1.27,1.27-1.27Z"/><path d="M252.62,407.69c.7,0,1.27.57,1.27,1.27,0,.7-.57,1.27-1.27,1.27s-1.27-.57-1.27-1.27c0-.7.57-1.27,1.27-1.27Z"/><path d="M258.48,369.3c.7,0,1.27.57,1.27,1.27,0,.7-.57,1.27-1.27,1.27s-1.27-.57-1.27-1.27c0-.7.57-1.27,1.27-1.27Z"/><path d="M258.48,375.7c.7,0,1.27.57,1.27,1.27,0,.7-.57,1.27-1.27,1.27s-1.27-.57-1.27-1.27.57-1.27,1.27-1.27Z"/><path d="M258.48,382.1c.7,0,1.27.57,1.27,1.27s-.57,1.27-1.27,1.27-1.27-.57-1.27-1.27.57-1.27,1.27-1.27Z"/><path d="M258.48,388.5c.7,0,1.27.57,1.27,1.27,0,.7-.57,1.27-1.27,1.27s-1.27-.57-1.27-1.27.57-1.27,1.27-1.27Z"/><path d="M258.48,394.9c.7,0,1.27.57,1.27,1.27,0,.7-.57,1.27-1.27,1.27s-1.27-.57-1.27-1.27c0-.7.57-1.27,1.27-1.27Z"/><path d="M258.48,401.29c.7,0,1.27.57,1.27,1.27s-.57,1.27-1.27,1.27-1.27-.57-1.27-1.27c0-.7.57-1.27,1.27-1.27Z"/><path d="M258.48,407.69c.7,0,1.27.57,1.27,1.27,0,.7-.57,1.27-1.27,1.27s-1.27-.57-1.27-1.27.57-1.27,1.27-1.27Z"/><path d="M264.34,369.3c.7,0,1.27.57,1.27,1.27s-.57,1.27-1.27,1.27-1.27-.57-1.27-1.27.57-1.27,1.27-1.27Z"/><path d="M264.34,375.7c.7,0,1.27.57,1.27,1.27s-.57,1.27-1.27,1.27-1.27-.57-1.27-1.27c0-.7.57-1.27,1.27-1.27Z"/><path d="M264.34,382.1c.7,0,1.27.57,1.27,1.27,0,.7-.57,1.27-1.27,1.27s-1.27-.57-1.27-1.27c0-.7.57-1.27,1.27-1.27Z"/><path d="M264.34,388.5c.7,0,1.27.57,1.27,1.27,0,.7-.57,1.27-1.27,1.27s-1.27-.57-1.27-1.27.57-1.27,1.27-1.27Z"/><path d="M264.34,394.9c.7,0,1.27.57,1.27,1.27s-.57,1.27-1.27,1.27-1.27-.57-1.27-1.27c0-.7.57-1.27,1.27-1.27Z"/><path d="M264.34,401.29c.7,0,1.27.57,1.27,1.27,0,.7-.57,1.27-1.27,1.27s-1.27-.57-1.27-1.27c0-.7.57-1.27,1.27-1.27Z"/><path d="M264.34,407.69c.7,0,1.27.57,1.27,1.27,0,.7-.57,1.27-1.27,1.27s-1.27-.57-1.27-1.27c0-.7.57-1.27,1.27-1.27Z"/><path d="M270.2,375.7c.7,0,1.27.57,1.27,1.27,0,.7-.57,1.27-1.27,1.27s-1.27-.57-1.27-1.27c0-.7.57-1.27,1.27-1.27Z"/><path d="M270.2,382.1c.7,0,1.27.57,1.27,1.27,0,.7-.57,1.27-1.27,1.27s-1.27-.57-1.27-1.27.57-1.27,1.27-1.27Z"/><path d="M270.2,388.5c.7,0,1.27.57,1.27,1.27,0,.7-.57,1.27-1.27,1.27s-1.27-.57-1.27-1.27c0-.7.57-1.27,1.27-1.27Z"/><path d="M270.2,394.9c.7,0,1.27.57,1.27,1.27s-.57,1.27-1.27,1.27-1.27-.57-1.27-1.27c0-.7.57-1.27,1.27-1.27Z"/><path d="M270.2,401.29c.7,0,1.27.57,1.27,1.27,0,.7-.57,1.27-1.27,1.27s-1.27-.57-1.27-1.27c0-.7.57-1.27,1.27-1.27Z"/><path d="M270.2,407.69c.7,0,1.27.57,1.27,1.27,0,.7-.57,1.27-1.27,1.27s-1.27-.57-1.27-1.27c0-.7.57-1.27,1.27-1.27Z"/><path d="M276.05,401.29c.7,0,1.27.57,1.27,1.27,0,.7-.57,1.27-1.27,1.27s-1.27-.57-1.27-1.27.57-1.27,1.27-1.27Z"/><path d="M276.05,407.69c.7,0,1.27.57,1.27,1.27s-.57,1.27-1.27,1.27-1.27-.57-1.27-1.27c0-.7.57-1.27,1.27-1.27Z"/><path d="M153.65,343.49c.7,0,1.27.57,1.27,1.27,0,.7-.57,1.27-1.27,1.27s-1.27-.57-1.27-1.27c0-.7.57-1.27,1.27-1.27Z"/><path d="M153.65,349.88c.7,0,1.27.57,1.27,1.27s-.57,1.27-1.27,1.27-1.27-.57-1.27-1.27c0-.7.57-1.27,1.27-1.27Z"/><path d="M153.65,356.28c.7,0,1.27.57,1.27,1.27,0,.7-.57,1.27-1.27,1.27s-1.27-.57-1.27-1.27.57-1.27,1.27-1.27Z"/><path d="M153.65,362.68c.7,0,1.27.57,1.27,1.27,0,.7-.57,1.27-1.27,1.27s-1.27-.57-1.27-1.27c0-.7.57-1.27,1.27-1.27Z"/><path d="M159.51,298.7c.7,0,1.27.57,1.27,1.27,0,.7-.57,1.27-1.27,1.27s-1.27-.57-1.27-1.27.57-1.27,1.27-1.27Z"/><path d="M159.51,305.1c.7,0,1.27.57,1.27,1.27s-.57,1.27-1.27,1.27-1.27-.57-1.27-1.27.57-1.27,1.27-1.27Z"/><path d="M159.51,311.49c.7,0,1.27.57,1.27,1.27,0,.7-.57,1.27-1.27,1.27s-1.27-.57-1.27-1.27c0-.7.57-1.27,1.27-1.27Z"/><path d="M159.51,317.89c.7,0,1.27.57,1.27,1.27,0,.7-.57,1.27-1.27,1.27s-1.27-.57-1.27-1.27.57-1.27,1.27-1.27Z"/><path d="M159.51,324.29c.7,0,1.27.57,1.27,1.27s-.57,1.27-1.27,1.27-1.27-.57-1.27-1.27.57-1.27,1.27-1.27Z"/><path d="M159.51,330.69c.7,0,1.27.57,1.27,1.27s-.57,1.27-1.27,1.27-1.27-.57-1.27-1.27c0-.7.57-1.27,1.27-1.27Z"/><path d="M159.51,337.09c.7,0,1.27.57,1.27,1.27,0,.7-.57,1.27-1.27,1.27s-1.27-.57-1.27-1.27.57-1.27,1.27-1.27Z"/><path d="M159.51,343.49c.7,0,1.27.57,1.27,1.27,0,.7-.57,1.27-1.27,1.27s-1.27-.57-1.27-1.27c0-.7.57-1.27,1.27-1.27Z"/><path d="M159.51,349.88c.7,0,1.27.57,1.27,1.27s-.57,1.27-1.27,1.27-1.27-.57-1.27-1.27.57-1.27,1.27-1.27Z"/><path d="M159.51,356.28c.7,0,1.27.57,1.27,1.27,0,.7-.57,1.27-1.27,1.27s-1.27-.57-1.27-1.27c0-.7.57-1.27,1.27-1.27Z"/><path d="M159.51,362.68c.7,0,1.27.57,1.27,1.27,0,.7-.57,1.27-1.27,1.27s-1.27-.57-1.27-1.27.57-1.27,1.27-1.27Z"/><path d="M165.37,260.31c.7,0,1.27.57,1.27,1.27s-.57,1.27-1.27,1.27-1.27-.57-1.27-1.27c0-.7.57-1.27,1.27-1.27Z"/><path d="M165.37,266.71c.7,0,1.27.57,1.27,1.27,0,.7-.57,1.27-1.27,1.27s-1.27-.57-1.27-1.27c0-.7.57-1.27,1.27-1.27Z"/><path d="M165.37,273.1c.7,0,1.27.57,1.27,1.27s-.57,1.27-1.27,1.27-1.27-.57-1.27-1.27c0-.7.57-1.27,1.27-1.27Z"/><path d="M165.37,279.5c.7,0,1.27.57,1.27,1.27,0,.7-.57,1.27-1.27,1.27s-1.27-.57-1.27-1.27c0-.7.57-1.27,1.27-1.27Z"/><path d="M165.37,285.9c.7,0,1.27.57,1.27,1.27,0,.7-.57,1.27-1.27,1.27s-1.27-.57-1.27-1.27.57-1.27,1.27-1.27Z"/><path d="M165.37,292.3c.7,0,1.27.57,1.27,1.27,0,.7-.57,1.27-1.27,1.27s-1.27-.57-1.27-1.27c0-.7.57-1.27,1.27-1.27Z"/><path d="M165.37,298.7c.7,0,1.27.57,1.27,1.27,0,.7-.57,1.27-1.27,1.27s-1.27-.57-1.27-1.27c0-.7.57-1.27,1.27-1.27Z"/><path d="M165.37,305.1c.7,0,1.27.57,1.27,1.27s-.57,1.27-1.27,1.27-1.27-.57-1.27-1.27.57-1.27,1.27-1.27Z"/><path d="M165.37,311.49c.7,0,1.27.57,1.27,1.27,0,.7-.57,1.27-1.27,1.27s-1.27-.57-1.27-1.27.57-1.27,1.27-1.27Z"/><path d="M165.37,317.89c.7,0,1.27.57,1.27,1.27s-.57,1.27-1.27,1.27-1.27-.57-1.27-1.27c0-.7.57-1.27,1.27-1.27Z"/><path d="M165.37,324.29c.7,0,1.27.57,1.27,1.27,0,.7-.57,1.27-1.27,1.27s-1.27-.57-1.27-1.27c0-.7.57-1.27,1.27-1.27Z"/><path d="M165.37,330.69c.7,0,1.27.57,1.27,1.27,0,.7-.57,1.27-1.27,1.27s-1.27-.57-1.27-1.27.57-1.27,1.27-1.27Z"/><path d="M165.37,337.09c.7,0,1.27.57,1.27,1.27,0,.7-.57,1.27-1.27,1.27s-1.27-.57-1.27-1.27c0-.7.57-1.27,1.27-1.27Z"/><path d="M165.37,343.49c.7,0,1.27.57,1.27,1.27,0,.7-.57,1.27-1.27,1.27s-1.27-.57-1.27-1.27c0-.7.57-1.27,1.27-1.27Z"/><path d="M165.37,349.88c.7,0,1.27.57,1.27,1.27,0,.7-.57,1.27-1.27,1.27s-1.27-.57-1.27-1.27.57-1.27,1.27-1.27Z"/><path d="M165.37,356.28c.7,0,1.27.57,1.27,1.27,0,.7-.57,1.27-1.27,1.27s-1.27-.57-1.27-1.27.57-1.27,1.27-1.27Z"/><path d="M165.37,362.68c.7,0,1.27.57,1.27,1.27s-.57,1.27-1.27,1.27-1.27-.57-1.27-1.27c0-.7.57-1.27,1.27-1.27Z"/><path d="M165.37,253.95c.7,0,1.27.57,1.27,1.27s-.57,1.27-1.27,1.27-1.27-.57-1.27-1.27c0-.7.57-1.27,1.27-1.27Z"/><path d="M171.23,260.31c.7,0,1.27.57,1.27,1.27,0,.7-.57,1.27-1.27,1.27s-1.27-.57-1.27-1.27.57-1.27,1.27-1.27Z"/><path d="M171.23,266.71c.7,0,1.27.57,1.27,1.27s-.57,1.27-1.27,1.27-1.27-.57-1.27-1.27c0-.7.57-1.27,1.27-1.27Z"/><path d="M171.23,273.1c.7,0,1.27.57,1.27,1.27,0,.7-.57,1.27-1.27,1.27s-1.27-.57-1.27-1.27.57-1.27,1.27-1.27Z"/><path d="M171.23,279.5c.7,0,1.27.57,1.27,1.27,0,.7-.57,1.27-1.27,1.27s-1.27-.57-1.27-1.27c0-.7.57-1.27,1.27-1.27Z"/><path d="M171.23,285.9c.7,0,1.27.57,1.27,1.27s-.57,1.27-1.27,1.27-1.27-.57-1.27-1.27.57-1.27,1.27-1.27Z"/><path d="M171.23,292.3c.7,0,1.27.57,1.27,1.27,0,.7-.57,1.27-1.27,1.27s-1.27-.57-1.27-1.27.57-1.27,1.27-1.27Z"/><path d="M171.23,298.7c.7,0,1.27.57,1.27,1.27,0,.7-.57,1.27-1.27,1.27s-1.27-.57-1.27-1.27c0-.7.57-1.27,1.27-1.27Z"/><path d="M171.23,305.1c.7,0,1.27.57,1.27,1.27,0,.7-.57,1.27-1.27,1.27s-1.27-.57-1.27-1.27.57-1.27,1.27-1.27Z"/><path d="M171.23,311.49c.7,0,1.27.57,1.27,1.27s-.57,1.27-1.27,1.27-1.27-.57-1.27-1.27c0-.7.57-1.27,1.27-1.27Z"/><path d="M171.23,317.89c.7,0,1.27.57,1.27,1.27,0,.7-.57,1.27-1.27,1.27s-1.27-.57-1.27-1.27.57-1.27,1.27-1.27Z"/><path d="M171.23,324.29c.7,0,1.27.57,1.27,1.27,0,.7-.57,1.27-1.27,1.27s-1.27-.57-1.27-1.27c0-.7.57-1.27,1.27-1.27Z"/><path d="M171.23,330.69c.7,0,1.27.57,1.27,1.27s-.57,1.27-1.27,1.27-1.27-.57-1.27-1.27.57-1.27,1.27-1.27Z"/><path d="M171.23,337.09c.7,0,1.27.57,1.27,1.27,0,.7-.57,1.27-1.27,1.27s-1.27-.57-1.27-1.27c0-.7.57-1.27,1.27-1.27Z"/><path d="M171.23,343.49c.7,0,1.27.57,1.27,1.27,0,.7-.57,1.27-1.27,1.27s-1.27-.57-1.27-1.27c0-.7.57-1.27,1.27-1.27Z"/><path d="M171.23,349.88c.7,0,1.27.57,1.27,1.27,0,.7-.57,1.27-1.27,1.27s-1.27-.57-1.27-1.27.57-1.27,1.27-1.27Z"/><path d="M171.23,356.28c.7,0,1.27.57,1.27,1.27s-.57,1.27-1.27,1.27-1.27-.57-1.27-1.27c0-.7.57-1.27,1.27-1.27Z"/><path d="M171.23,362.68c.7,0,1.27.57,1.27,1.27,0,.7-.57,1.27-1.27,1.27s-1.27-.57-1.27-1.27c0-.7.57-1.27,1.27-1.27Z"/><path d="M171.23,253.95c.7,0,1.27.57,1.27,1.27,0,.7-.57,1.27-1.27,1.27s-1.27-.57-1.27-1.27c0-.7.57-1.27,1.27-1.27Z"/><path d="M177.09,305.1c.7,0,1.27.57,1.27,1.27,0,.7-.57,1.27-1.27,1.27s-1.27-.57-1.27-1.27c0-.7.57-1.27,1.27-1.27Z"/><path d="M177.09,311.49c.7,0,1.27.57,1.27,1.27s-.57,1.27-1.27,1.27-1.27-.57-1.27-1.27c0-.7.57-1.27,1.27-1.27Z"/><path d="M177.09,317.89c.7,0,1.27.57,1.27,1.27,0,.7-.57,1.27-1.27,1.27s-1.27-.57-1.27-1.27.57-1.27,1.27-1.27Z"/><path d="M177.09,324.29c.7,0,1.27.57,1.27,1.27,0,.7-.57,1.27-1.27,1.27s-1.27-.57-1.27-1.27.57-1.27,1.27-1.27Z"/><path d="M177.09,330.69c.7,0,1.27.57,1.27,1.27s-.57,1.27-1.27,1.27-1.27-.57-1.27-1.27c0-.7.57-1.27,1.27-1.27Z"/><path d="M177.09,337.09c.7,0,1.27.57,1.27,1.27,0,.7-.57,1.27-1.27,1.27s-1.27-.57-1.27-1.27c0-.7.57-1.27,1.27-1.27Z"/><path d="M177.09,343.49c.7,0,1.27.57,1.27,1.27,0,.7-.57,1.27-1.27,1.27s-1.27-.57-1.27-1.27.57-1.27,1.27-1.27Z"/><path d="M177.09,349.88c.7,0,1.27.57,1.27,1.27,0,.7-.57,1.27-1.27,1.27s-1.27-.57-1.27-1.27c0-.7.57-1.27,1.27-1.27Z"/><path d="M177.09,356.28c.7,0,1.27.57,1.27,1.27s-.57,1.27-1.27,1.27-1.27-.57-1.27-1.27c0-.7.57-1.27,1.27-1.27Z"/><path d="M177.09,362.68c.7,0,1.27.57,1.27,1.27,0,.7-.57,1.27-1.27,1.27s-1.27-.57-1.27-1.27.57-1.27,1.27-1.27Z"/><path d="M182.95,305.1c.7,0,1.27.57,1.27,1.27,0,.7-.57,1.27-1.27,1.27s-1.27-.57-1.27-1.27c0-.7.57-1.27,1.27-1.27Z"/><path d="M182.95,311.49c.7,0,1.27.57,1.27,1.27,0,.7-.57,1.27-1.27,1.27s-1.27-.57-1.27-1.27.57-1.27,1.27-1.27Z"/><path d="M182.95,317.89c.7,0,1.27.57,1.27,1.27,0,.7-.57,1.27-1.27,1.27s-1.27-.57-1.27-1.27c0-.7.57-1.27,1.27-1.27Z"/><path d="M182.95,324.29c.7,0,1.27.57,1.27,1.27s-.57,1.27-1.27,1.27-1.27-.57-1.27-1.27c0-.7.57-1.27,1.27-1.27Z"/><path d="M182.95,330.69c.7,0,1.27.57,1.27,1.27,0,.7-.57,1.27-1.27,1.27s-1.27-.57-1.27-1.27c0-.7.57-1.27,1.27-1.27Z"/><path d="M182.95,337.09c.7,0,1.27.57,1.27,1.27,0,.7-.57,1.27-1.27,1.27s-1.27-.57-1.27-1.27.57-1.27,1.27-1.27Z"/><path d="M182.95,343.49c.7,0,1.27.57,1.27,1.27s-.57,1.27-1.27,1.27-1.27-.57-1.27-1.27c0-.7.57-1.27,1.27-1.27Z"/><path d="M182.95,349.88c.7,0,1.27.57,1.27,1.27,0,.7-.57,1.27-1.27,1.27s-1.27-.57-1.27-1.27c0-.7.57-1.27,1.27-1.27Z"/><path d="M182.95,356.28c.7,0,1.27.57,1.27,1.27,0,.7-.57,1.27-1.27,1.27s-1.27-.57-1.27-1.27.57-1.27,1.27-1.27Z"/><path d="M182.95,362.68c.7,0,1.27.57,1.27,1.27,0,.7-.57,1.27-1.27,1.27s-1.27-.57-1.27-1.27c0-.7.57-1.27,1.27-1.27Z"/><path d="M188.81,305.1c.7,0,1.27.57,1.27,1.27s-.57,1.27-1.27,1.27-1.27-.57-1.27-1.27c0-.7.57-1.27,1.27-1.27Z"/><path d="M188.81,311.49c.7,0,1.27.57,1.27,1.27s-.57,1.27-1.27,1.27-1.27-.57-1.27-1.27.57-1.27,1.27-1.27Z"/><path d="M188.81,317.89c.7,0,1.27.57,1.27,1.27s-.57,1.27-1.27,1.27-1.27-.57-1.27-1.27c0-.7.57-1.27,1.27-1.27Z"/><path d="M188.81,324.29c.7,0,1.27.57,1.27,1.27,0,.7-.57,1.27-1.27,1.27s-1.27-.57-1.27-1.27c0-.7.57-1.27,1.27-1.27Z"/><path d="M188.81,330.69c.7,0,1.27.57,1.27,1.27s-.57,1.27-1.27,1.27-1.27-.57-1.27-1.27.57-1.27,1.27-1.27Z"/><path d="M188.81,337.09c.7,0,1.27.57,1.27,1.27s-.57,1.27-1.27,1.27-1.27-.57-1.27-1.27c0-.7.57-1.27,1.27-1.27Z"/><path d="M188.81,343.49c.7,0,1.27.57,1.27,1.27,0,.7-.57,1.27-1.27,1.27s-1.27-.57-1.27-1.27c0-.7.57-1.27,1.27-1.27Z"/><path d="M188.81,349.88c.7,0,1.27.57,1.27,1.27s-.57,1.27-1.27,1.27-1.27-.57-1.27-1.27c0-.7.57-1.27,1.27-1.27Z"/><path d="M188.81,356.28c.7,0,1.27.57,1.27,1.27,0,.7-.57,1.27-1.27,1.27s-1.27-.57-1.27-1.27.57-1.27,1.27-1.27Z"/><path d="M188.81,362.68c.7,0,1.27.57,1.27,1.27s-.57,1.27-1.27,1.27-1.27-.57-1.27-1.27c0-.7.57-1.27,1.27-1.27Z"/><path d="M194.67,305.1c.7,0,1.27.57,1.27,1.27,0,.7-.57,1.27-1.27,1.27s-1.27-.57-1.27-1.27.57-1.27,1.27-1.27Z"/><path d="M194.67,311.49c.7,0,1.27.57,1.27,1.27s-.57,1.27-1.27,1.27-1.27-.57-1.27-1.27c0-.7.57-1.27,1.27-1.27Z"/><path d="M194.67,317.89c.7,0,1.27.57,1.27,1.27,0,.7-.57,1.27-1.27,1.27s-1.27-.57-1.27-1.27c0-.7.57-1.27,1.27-1.27Z"/><path d="M194.67,324.29c.7,0,1.27.57,1.27,1.27,0,.7-.57,1.27-1.27,1.27s-1.27-.57-1.27-1.27.57-1.27,1.27-1.27Z"/><path d="M194.67,330.69c.7,0,1.27.57,1.27,1.27,0,.7-.57,1.27-1.27,1.27s-1.27-.57-1.27-1.27c0-.7.57-1.27,1.27-1.27Z"/><path d="M194.67,337.09c.7,0,1.27.57,1.27,1.27s-.57,1.27-1.27,1.27-1.27-.57-1.27-1.27c0-.7.57-1.27,1.27-1.27Z"/><path d="M194.67,343.49c.7,0,1.27.57,1.27,1.27,0,.7-.57,1.27-1.27,1.27s-1.27-.57-1.27-1.27c0-.7.57-1.27,1.27-1.27Z"/><path d="M194.67,349.88c.7,0,1.27.57,1.27,1.27,0,.7-.57,1.27-1.27,1.27s-1.27-.57-1.27-1.27.57-1.27,1.27-1.27Z"/><path d="M194.67,356.28c.7,0,1.27.57,1.27,1.27s-.57,1.27-1.27,1.27-1.27-.57-1.27-1.27c0-.7.57-1.27,1.27-1.27Z"/><path d="M194.67,362.68c.7,0,1.27.57,1.27,1.27,0,.7-.57,1.27-1.27,1.27s-1.27-.57-1.27-1.27c0-.7.57-1.27,1.27-1.27Z"/><path d="M147.79,401.29c.7,0,1.27.57,1.27,1.27,0,.7-.57,1.27-1.27,1.27s-1.27-.57-1.27-1.27.57-1.27,1.27-1.27Z"/><path d="M147.79,407.69c.7,0,1.27.57,1.27,1.27,0,.7-.57,1.27-1.27,1.27s-1.27-.57-1.27-1.27c0-.7.57-1.27,1.27-1.27Z"/><path d="M153.65,369.3c.7,0,1.27.57,1.27,1.27s-.57,1.27-1.27,1.27-1.27-.57-1.27-1.27c0-.7.57-1.27,1.27-1.27Z"/><path d="M153.65,375.7c.7,0,1.27.57,1.27,1.27,0,.7-.57,1.27-1.27,1.27s-1.27-.57-1.27-1.27c0-.7.57-1.27,1.27-1.27Z"/><path d="M153.65,382.1c.7,0,1.27.57,1.27,1.27s-.57,1.27-1.27,1.27-1.27-.57-1.27-1.27.57-1.27,1.27-1.27Z"/><path d="M153.65,388.5c.7,0,1.27.57,1.27,1.27,0,.7-.57,1.27-1.27,1.27s-1.27-.57-1.27-1.27.57-1.27,1.27-1.27Z"/><path d="M153.65,394.9c.7,0,1.27.57,1.27,1.27,0,.7-.57,1.27-1.27,1.27s-1.27-.57-1.27-1.27c0-.7.57-1.27,1.27-1.27Z"/><path d="M153.65,401.29c.7,0,1.27.57,1.27,1.27s-.57,1.27-1.27,1.27-1.27-.57-1.27-1.27c0-.7.57-1.27,1.27-1.27Z"/><path d="M153.65,407.69c.7,0,1.27.57,1.27,1.27,0,.7-.57,1.27-1.27,1.27s-1.27-.57-1.27-1.27.57-1.27,1.27-1.27Z"/><path d="M159.51,369.3c.7,0,1.27.57,1.27,1.27,0,.7-.57,1.27-1.27,1.27s-1.27-.57-1.27-1.27c0-.7.57-1.27,1.27-1.27Z"/><path d="M159.51,375.7c.7,0,1.27.57,1.27,1.27,0,.7-.57,1.27-1.27,1.27s-1.27-.57-1.27-1.27.57-1.27,1.27-1.27Z"/><path d="M159.51,382.1c.7,0,1.27.57,1.27,1.27,0,.7-.57,1.27-1.27,1.27s-1.27-.57-1.27-1.27c0-.7.57-1.27,1.27-1.27Z"/><path d="M159.51,388.5c.7,0,1.27.57,1.27,1.27s-.57,1.27-1.27,1.27-1.27-.57-1.27-1.27c0-.7.57-1.27,1.27-1.27Z"/><path d="M159.51,394.9c.7,0,1.27.57,1.27,1.27,0,.7-.57,1.27-1.27,1.27s-1.27-.57-1.27-1.27c0-.7.57-1.27,1.27-1.27Z"/><path d="M159.51,401.29c.7,0,1.27.57,1.27,1.27s-.57,1.27-1.27,1.27-1.27-.57-1.27-1.27.57-1.27,1.27-1.27Z"/><path d="M159.51,407.69c.7,0,1.27.57,1.27,1.27,0,.7-.57,1.27-1.27,1.27s-1.27-.57-1.27-1.27c0-.7.57-1.27,1.27-1.27Z"/><path d="M165.37,369.3c.7,0,1.27.57,1.27,1.27s-.57,1.27-1.27,1.27-1.27-.57-1.27-1.27.57-1.27,1.27-1.27Z"/><path d="M165.37,375.7c.7,0,1.27.57,1.27,1.27s-.57,1.27-1.27,1.27-1.27-.57-1.27-1.27c0-.7.57-1.27,1.27-1.27Z"/><path d="M165.37,382.1c.7,0,1.27.57,1.27,1.27s-.57,1.27-1.27,1.27-1.27-.57-1.27-1.27.57-1.27,1.27-1.27Z"/><path d="M165.37,388.5c.7,0,1.27.57,1.27,1.27,0,.7-.57,1.27-1.27,1.27s-1.27-.57-1.27-1.27c0-.7.57-1.27,1.27-1.27Z"/><path d="M165.37,394.9c.7,0,1.27.57,1.27,1.27,0,.7-.57,1.27-1.27,1.27s-1.27-.57-1.27-1.27c0-.7.57-1.27,1.27-1.27Z"/><path d="M165.37,401.29c.7,0,1.27.57,1.27,1.27s-.57,1.27-1.27,1.27-1.27-.57-1.27-1.27c0-.7.57-1.27,1.27-1.27Z"/><path d="M165.37,407.69c.7,0,1.27.57,1.27,1.27,0,.7-.57,1.27-1.27,1.27s-1.27-.57-1.27-1.27c0-.7.57-1.27,1.27-1.27Z"/><path d="M171.23,369.3c.7,0,1.27.57,1.27,1.27,0,.7-.57,1.27-1.27,1.27s-1.27-.57-1.27-1.27.57-1.27,1.27-1.27Z"/><path d="M171.23,375.7c.7,0,1.27.57,1.27,1.27,0,.7-.57,1.27-1.27,1.27s-1.27-.57-1.27-1.27c0-.7.57-1.27,1.27-1.27Z"/><path d="M171.23,382.1c.7,0,1.27.57,1.27,1.27s-.57,1.27-1.27,1.27-1.27-.57-1.27-1.27c0-.7.57-1.27,1.27-1.27Z"/><path d="M171.23,388.5c.7,0,1.27.57,1.27,1.27,0,.7-.57,1.27-1.27,1.27s-1.27-.57-1.27-1.27.57-1.27,1.27-1.27Z"/><path d="M171.23,394.9c.7,0,1.27.57,1.27,1.27,0,.7-.57,1.27-1.27,1.27s-1.27-.57-1.27-1.27c0-.7.57-1.27,1.27-1.27Z"/><path d="M171.23,401.29c.7,0,1.27.57,1.27,1.27,0,.7-.57,1.27-1.27,1.27s-1.27-.57-1.27-1.27.57-1.27,1.27-1.27Z"/><path d="M171.23,407.69c.7,0,1.27.57,1.27,1.27s-.57,1.27-1.27,1.27-1.27-.57-1.27-1.27c0-.7.57-1.27,1.27-1.27Z"/><path d="M177.09,369.3c.7,0,1.27.57,1.27,1.27s-.57,1.27-1.27,1.27-1.27-.57-1.27-1.27c0-.7.57-1.27,1.27-1.27Z"/><path d="M177.09,375.7c.7,0,1.27.57,1.27,1.27,0,.7-.57,1.27-1.27,1.27s-1.27-.57-1.27-1.27c0-.7.57-1.27,1.27-1.27Z"/><path d="M177.09,382.1c.7,0,1.27.57,1.27,1.27s-.57,1.27-1.27,1.27-1.27-.57-1.27-1.27.57-1.27,1.27-1.27Z"/><path d="M177.09,388.5c.7,0,1.27.57,1.27,1.27,0,.7-.57,1.27-1.27,1.27s-1.27-.57-1.27-1.27c0-.7.57-1.27,1.27-1.27Z"/><path d="M177.09,394.9c.7,0,1.27.57,1.27,1.27s-.57,1.27-1.27,1.27-1.27-.57-1.27-1.27.57-1.27,1.27-1.27Z"/><path d="M177.09,401.29c.7,0,1.27.57,1.27,1.27,0,.7-.57,1.27-1.27,1.27s-1.27-.57-1.27-1.27c0-.7.57-1.27,1.27-1.27Z"/><path d="M177.09,407.69c.7,0,1.27.57,1.27,1.27s-.57,1.27-1.27,1.27-1.27-.57-1.27-1.27c0-.7.57-1.27,1.27-1.27Z"/><path d="M182.95,369.3c.7,0,1.27.57,1.27,1.27,0,.7-.57,1.27-1.27,1.27s-1.27-.57-1.27-1.27c0-.7.57-1.27,1.27-1.27Z"/><path d="M182.95,375.7c.7,0,1.27.57,1.27,1.27s-.57,1.27-1.27,1.27-1.27-.57-1.27-1.27.57-1.27,1.27-1.27Z"/><path d="M182.95,382.1c.7,0,1.27.57,1.27,1.27,0,.7-.57,1.27-1.27,1.27s-1.27-.57-1.27-1.27c0-.7.57-1.27,1.27-1.27Z"/><path d="M182.95,388.5c.7,0,1.27.57,1.27,1.27,0,.7-.57,1.27-1.27,1.27s-1.27-.57-1.27-1.27.57-1.27,1.27-1.27Z"/><path d="M182.95,394.9c.7,0,1.27.57,1.27,1.27s-.57,1.27-1.27,1.27-1.27-.57-1.27-1.27c0-.7.57-1.27,1.27-1.27Z"/><path d="M182.95,401.29c.7,0,1.27.57,1.27,1.27,0,.7-.57,1.27-1.27,1.27s-1.27-.57-1.27-1.27c0-.7.57-1.27,1.27-1.27Z"/><path d="M182.95,407.69c.7,0,1.27.57,1.27,1.27,0,.7-.57,1.27-1.27,1.27s-1.27-.57-1.27-1.27.57-1.27,1.27-1.27Z"/><path d="M188.81,369.3c.7,0,1.27.57,1.27,1.27s-.57,1.27-1.27,1.27-1.27-.57-1.27-1.27.57-1.27,1.27-1.27Z"/><path d="M188.81,375.7c.7,0,1.27.57,1.27,1.27,0,.7-.57,1.27-1.27,1.27s-1.27-.57-1.27-1.27c0-.7.57-1.27,1.27-1.27Z"/><path d="M188.81,382.1c.7,0,1.27.57,1.27,1.27,0,.7-.57,1.27-1.27,1.27s-1.27-.57-1.27-1.27c0-.7.57-1.27,1.27-1.27Z"/><path d="M188.81,388.5c.7,0,1.27.57,1.27,1.27s-.57,1.27-1.27,1.27-1.27-.57-1.27-1.27c0-.7.57-1.27,1.27-1.27Z"/><path d="M188.81,394.9c.7,0,1.27.57,1.27,1.27,0,.7-.57,1.27-1.27,1.27s-1.27-.57-1.27-1.27.57-1.27,1.27-1.27Z"/><path d="M188.81,401.29c.7,0,1.27.57,1.27,1.27,0,.7-.57,1.27-1.27,1.27s-1.27-.57-1.27-1.27c0-.7.57-1.27,1.27-1.27Z"/><path d="M188.81,407.69c.7,0,1.27.57,1.27,1.27,0,.7-.57,1.27-1.27,1.27s-1.27-.57-1.27-1.27.57-1.27,1.27-1.27Z"/><path d="M194.67,369.3c.7,0,1.27.57,1.27,1.27,0,.7-.57,1.27-1.27,1.27s-1.27-.57-1.27-1.27c0-.7.57-1.27,1.27-1.27Z"/><path d="M194.67,375.7c.7,0,1.27.57,1.27,1.27s-.57,1.27-1.27,1.27-1.27-.57-1.27-1.27.57-1.27,1.27-1.27Z"/><path d="M194.67,382.1c.7,0,1.27.57,1.27,1.27,0,.7-.57,1.27-1.27,1.27s-1.27-.57-1.27-1.27c0-.7.57-1.27,1.27-1.27Z"/><path d="M194.67,388.5c.7,0,1.27.57,1.27,1.27s-.57,1.27-1.27,1.27-1.27-.57-1.27-1.27c0-.7.57-1.27,1.27-1.27Z"/><path d="M194.67,394.9c.7,0,1.27.57,1.27,1.27,0,.7-.57,1.27-1.27,1.27s-1.27-.57-1.27-1.27c0-.7.57-1.27,1.27-1.27Z"/><path d="M194.67,401.29c.7,0,1.27.57,1.27,1.27,0,.7-.57,1.27-1.27,1.27s-1.27-.57-1.27-1.27.57-1.27,1.27-1.27Z"/><path d="M194.67,407.69c.7,0,1.27.57,1.27,1.27s-.57,1.27-1.27,1.27-1.27-.57-1.27-1.27c0-.7.57-1.27,1.27-1.27Z"/></g></g><g fill="none" stroke="var(--ill-line)"><path d="M242.35,161.17c4.8,8.62,5.04,19.03,4.02,28.84-1.02,9.81-3.18,19.57-2.72,29.43.38,8.12,2.52,16.04,4.65,23.89,5.66,20.88,11.33,41.76,16.99,62.63h-90.31v-50.34" stroke-miterlimit="10" stroke-width="3"/><polyline points="164.85 254 146.22 411.5 198.86 411.5 214.24 305.96" stroke-miterlimit="10" stroke-width="3"/><polyline points="208.13 347.87 216.67 411.5 278.22 411.5 255.54 305.96" stroke-miterlimit="10" stroke-width="3"/><path d="M243.59,217.16s-16.39,2.02-31.37,0" stroke-miterlimit="10" stroke-width="3"/><path d="M261.54,411.23s5.44,11.83,20.11,11.59v6.63h-48.98s1.82-8.37,1.82-8.37" stroke-miterlimit="10" stroke-width="3"/><path d="M188.02,411.23s5.44,11.83,20.11,11.59v6.63h-48.98s1.82-8.37,1.82-8.37" stroke-miterlimit="10" stroke-width="3"/><ellipse cx="170.54" cy="198.85" rx="34.82" ry="10.12" stroke-miterlimit="10" stroke-width="3"/></g><path d="M170.54,208.97c-11.34,0-21.42-1.58-27.78-4.02.55-5.42,12.77-9.74,27.78-9.74,15.01,0,27.23,4.33,27.78,9.74-6.36,2.44-16.43,4.02-27.78,4.02Z" stroke-miterlimit="10" stroke-width="3" fill="var(--ill-mass)" stroke="var(--ill-line)"/><g fill="none" stroke="var(--ill-line)"><path d="M205.36,198.85v25.73s.79,13.77-25.12,14.85" stroke-miterlimit="10" stroke-width="3"/><path d="M171.57,235.84c-2.46,9.53-11.99,16.74-21.83,16.52s-19.04-7.83-21.08-17.47c0,0-17.06-51.95,51.57-92.85" stroke-miterlimit="10" stroke-width="3"/><path d="M167.12,231.01c-1.87,5.76-6.41,10.6-12.04,12.83" stroke-miterlimit="10" stroke-width="3"/><path d="M159.18,230.96c-3.28,4.01-7.78,7.01-12.74,8.51" stroke-miterlimit="10" stroke-width="3"/><path d="M227.7,136.72c6.36,3.16,12.71,6.32,19.07,9.49,3.71,1.84,7.49,3.71,11.59,4.3,7.1,1.02,14.31-2.02,19.78-6.65,5.47-4.63,9.46-10.74,13.19-16.87" stroke-miterlimit="10" stroke-width="3"/><path d="M321.15,126.1c-4.85,10.84-9.72,21.72-16.08,31.75-6.36,10.03-14.31,19.24-24.3,25.65s-22.17,9.86-33.9,8.04" stroke-miterlimit="10" stroke-width="3"/><path d="M200.26,142.62c6.63,1.68,13.26,3.36,19.89,5.04,1.24.31,2.51.65,3.53,1.42,2.1,1.59,2.52,4.54,2.76,7.16,1.29,13.72,2.59,27.44,3.88,41.16" stroke-miterlimit="10" stroke-width="3"/><polyline points="209.33 106.6 219.18 118.58 210.68 123.09" stroke-miterlimit="10" stroke-width="3"/><path d="M223.45,100.18c2.85,5.45,4.66,11.58,4.34,17.72-.32,6.15-2.92,12.31-7.67,16.22-4.76,3.91-11.74,5.23-17.31,2.6" stroke-miterlimit="10" stroke-width="3"/><path d="M190.98,102.29c1.01,5.04,1.13,8.31,2.13,13.35-1.2-.14-2.4-.18-3.56.16s-2.24,1.14-2.64,2.28c-.63,1.82.74,3.85,2.5,4.64,1.76.79,3.78.66,5.7.52" stroke-miterlimit="10" stroke-width="3"/><path d="M179.95,133.8c-2.68,1.08-5.8.49-8.34-.88s-4.62-3.44-6.66-5.49c3.02-.51,5.61-3.42,6.17-6.43.43-2.32-.23-4.69-.34-7.05-.11-2.55.5-5.09,1.67-7.36" stroke-miterlimit="10" stroke-width="3"/><path d="M168.4,63.46c3.8-2.68,9.04-3.17,13.28-1.25-.11-3.02,1.4-5.86,3.62-7.92,2.22-2.06,5.17-3.24,8.17-3.61,6.91-.86,14.16,2.71,17.69,8.71,3.41-2.14,8.82-1.81,12.3.22,3.48,2.04,5.67,6.08,5.48,10.11-.19,4.02-2.76,7.84-6.42,9.54l3.61,16.93-53.22,9.58v-17.4c-5.31,0-9.3-5.66-10.17-10.91-.87-5.24,1.33-10.95,5.67-14.01Z" stroke-miterlimit="10" stroke-width="3"/><path d="M226.25,96.48c6.97,3.37,12.06,10.37,13.12,18.04.26,1.89.29,3.82.82,5.66.52,1.84,1.64,3.63,3.4,4.36-4.74,3.06-9.61,5.33-15.03,6.92" stroke-miterlimit="10" stroke-width="3"/></g><g fill="var(--ill-line)"><circle cx="217.19" cy="157.07" r="1.99"/><circle cx="219.08" cy="168.49" r="1.99"/><circle cx="220.13" cy="179.64" r="1.99"/><ellipse cx="204.01" cy="111.84" rx="1.94" ry="2.13"/><ellipse cx="220.34" cy="107.59" rx="1.94" ry="2.13"/></g><line x1="218.14" y1="89.35" x2="172.91" y2="97.22" stroke-miterlimit="10" stroke-width="3" fill="none" stroke="var(--ill-line)"/><g><g fill="none" stroke="var(--ill-line)"><path d="M305.58,83.68c23.22,0,42.04,15.87,42.04,35.45h-84.08c0-19.58,18.82-35.45,42.04-35.45Z" stroke-miterlimit="10" stroke-width="3"/><path d="M305.58,83.68c-1.57,0-3.11.08-4.63.22v-4.43c0-2.56,2.07-4.63,4.63-4.63h0c2.56,0,4.63,2.07,4.63,4.63v4.43c-1.52-.14-3.07-.22-4.63-.22Z" stroke-miterlimit="10" stroke-width="3"/><rect x="257.94" y="119.13" width="95.28" height="6.97" rx="3.48" ry="3.48" transform="translate(611.15 245.23) rotate(-180)" stroke-miterlimit="10" stroke-width="3"/></g></g></svg>