<svg id="Illustrations" xmlns="http://www.w3.org/2000/svg" viewBox="0 0 480 480"><g><g fill="var(--ill-dot)"><path d="M225.55,171.82c-.68,0-1.22.55-1.22,1.22s.55,1.22,1.22,1.22,1.22-.55,1.22-1.22-.55-1.22-1.22-1.22Z"/><path d="M225.55,178c-.68,0-1.22.55-1.22,1.22s.55,1.22,1.22,1.22,1.22-.55,1.22-1.22-.55-1.22-1.22-1.22Z"/><path d="M225.55,184.19c-.68,0-1.22.55-1.22,1.22s.55,1.22,1.22,1.22,1.22-.55,1.22-1.22-.55-1.22-1.22-1.22Z"/><path d="M225.55,190.37c-.68,0-1.22.55-1.22,1.22s.55,1.22,1.22,1.22,1.22-.55,1.22-1.22-.55-1.22-1.22-1.22Z"/><path d="M214.22,165.64c-.68,0-1.22.55-1.22,1.22s.55,1.22,1.22,1.22,1.22-.55,1.22-1.22-.55-1.22-1.22-1.22Z"/><path d="M214.22,171.82c-.68,0-1.22.55-1.22,1.22s.55,1.22,1.22,1.22,1.22-.55,1.22-1.22-.55-1.22-1.22-1.22Z"/><path d="M214.22,178c-.68,0-1.22.55-1.22,1.22s.55,1.22,1.22,1.22,1.22-.55,1.22-1.22-.55-1.22-1.22-1.22Z"/><path d="M214.22,184.19c-.68,0-1.22.55-1.22,1.22s.55,1.22,1.22,1.22,1.22-.55,1.22-1.22-.55-1.22-1.22-1.22Z"/><path d="M214.22,190.37c-.68,0-1.22.55-1.22,1.22s.55,1.22,1.22,1.22,1.22-.55,1.22-1.22-.55-1.22-1.22-1.22Z"/><path d="M208.56,165.64c-.68,0-1.22.55-1.22,1.22s.55,1.22,1.22,1.22,1.22-.55,1.22-1.22-.55-1.22-1.22-1.22Z"/><path d="M208.56,171.82c-.68,0-1.22.55-1.22,1.22s.55,1.22,1.22,1.22,1.22-.55,1.22-1.22-.55-1.22-1.22-1.22Z"/><path d="M208.56,178c-.68,0-1.22.55-1.22,1.22s.55,1.22,1.22,1.22,1.22-.55,1.22-1.22-.55-1.22-1.22-1.22Z"/><path d="M208.56,184.19c-.68,0-1.22.55-1.22,1.22s.55,1.22,1.22,1.22,1.22-.55,1.22-1.22-.55-1.22-1.22-1.22Z"/><path d="M208.56,190.37c-.68,0-1.22.55-1.22,1.22s.55,1.22,1.22,1.22,1.22-.55,1.22-1.22-.55-1.22-1.22-1.22Z"/><path d="M202.9,165.64c-.68,0-1.22.55-1.22,1.22s.55,1.22,1.22,1.22,1.22-.55,1.22-1.22-.55-1.22-1.22-1.22Z"/><path d="M202.9,171.82c-.68,0-1.22.55-1.22,1.22s.55,1.22,1.22,1.22,1.22-.55,1.22-1.22-.55-1.22-1.22-1.22Z"/><path d="M202.9,178c-.68,0-1.22.55-1.22,1.22s.55,1.22,1.22,1.22,1.22-.55,1.22-1.22-.55-1.22-1.22-1.22Z"/><path d="M202.9,184.19c-.68,0-1.22.55-1.22,1.22s.55,1.22,1.22,1.22,1.22-.55,1.22-1.22-.55-1.22-1.22-1.22Z"/><path d="M202.9,190.37c-.68,0-1.22.55-1.22,1.22s.55,1.22,1.22,1.22,1.22-.55,1.22-1.22-.55-1.22-1.22-1.22Z"/><path d="M197.24,165.64c-.68,0-1.22.55-1.22,1.22s.55,1.22,1.22,1.22,1.22-.55,1.22-1.22-.55-1.22-1.22-1.22Z"/><path d="M197.24,171.82c-.68,0-1.22.55-1.22,1.22s.55,1.22,1.22,1.22,1.22-.55,1.22-1.22-.55-1.22-1.22-1.22Z"/><path d="M197.24,178c-.68,0-1.22.55-1.22,1.22s.55,1.22,1.22,1.22,1.22-.55,1.22-1.22-.55-1.22-1.22-1.22Z"/><path d="M197.24,184.19c-.68,0-1.22.55-1.22,1.22s.55,1.22,1.22,1.22,1.22-.55,1.22-1.22-.55-1.22-1.22-1.22Z"/><path d="M197.24,190.37c-.68,0-1.22.55-1.22,1.22s.55,1.22,1.22,1.22,1.22-.55,1.22-1.22-.55-1.22-1.22-1.22Z"/><path d="M191.57,159.45c-.68,0-1.22.55-1.22,1.22s.55,1.22,1.22,1.22,1.22-.55,1.22-1.22-.55-1.22-1.22-1.22Z"/><path d="M191.57,165.64c-.68,0-1.22.55-1.22,1.22s.55,1.22,1.22,1.22,1.22-.55,1.22-1.22-.55-1.22-1.22-1.22Z"/><path d="M191.57,171.82c-.68,0-1.22.55-1.22,1.22s.55,1.22,1.22,1.22,1.22-.55,1.22-1.22-.55-1.22-1.22-1.22Z"/><path d="M191.57,178c-.68,0-1.22.55-1.22,1.22s.55,1.22,1.22,1.22,1.22-.55,1.22-1.22-.55-1.22-1.22-1.22Z"/><path d="M191.57,184.19c-.68,0-1.22.55-1.22,1.22s.55,1.22,1.22,1.22,1.22-.55,1.22-1.22-.55-1.22-1.22-1.22Z"/><path d="M191.57,190.37c-.68,0-1.22.55-1.22,1.22s.55,1.22,1.22,1.22,1.22-.55,1.22-1.22-.55-1.22-1.22-1.22Z"/><path d="M185.91,159.45c-.68,0-1.22.55-1.22,1.22s.55,1.22,1.22,1.22,1.22-.55,1.22-1.22-.55-1.22-1.22-1.22Z"/><path d="M185.91,165.64c-.68,0-1.22.55-1.22,1.22s.55,1.22,1.22,1.22,1.22-.55,1.22-1.22-.55-1.22-1.22-1.22Z"/><path d="M185.91,171.82c-.68,0-1.22.55-1.22,1.22s.55,1.22,1.22,1.22,1.22-.55,1.22-1.22-.55-1.22-1.22-1.22Z"/><path d="M185.91,178c-.68,0-1.22.55-1.22,1.22s.55,1.22,1.22,1.22,1.22-.55,1.22-1.22-.55-1.22-1.22-1.22Z"/><path d="M185.91,184.19c-.68,0-1.22.55-1.22,1.22s.55,1.22,1.22,1.22,1.22-.55,1.22-1.22-.55-1.22-1.22-1.22Z"/><path d="M180.25,153.27c-.68,0-1.22.55-1.22,1.22s.55,1.22,1.22,1.22,1.22-.55,1.22-1.22-.55-1.22-1.22-1.22Z"/><path d="M180.25,159.45c-.68,0-1.22.55-1.22,1.22s.55,1.22,1.22,1.22,1.22-.55,1.22-1.22-.55-1.22-1.22-1.22Z"/><path d="M180.25,165.64c-.68,0-1.22.55-1.22,1.22s.55,1.22,1.22,1.22,1.22-.55,1.22-1.22-.55-1.22-1.22-1.22Z"/><path d="M180.25,171.82c-.68,0-1.22.55-1.22,1.22s.55,1.22,1.22,1.22,1.22-.55,1.22-1.22-.55-1.22-1.22-1.22Z"/><path d="M180.25,178c-.68,0-1.22.55-1.22,1.22s.55,1.22,1.22,1.22,1.22-.55,1.22-1.22-.55-1.22-1.22-1.22Z"/><path d="M180.25,184.19c-.68,0-1.22.55-1.22,1.22s.55,1.22,1.22,1.22,1.22-.55,1.22-1.22-.55-1.22-1.22-1.22Z"/><path d="M174.59,153.27c-.68,0-1.22.55-1.22,1.22s.55,1.22,1.22,1.22,1.22-.55,1.22-1.22-.55-1.22-1.22-1.22Z"/><path d="M174.59,159.45c-.68,0-1.22.55-1.22,1.22s.55,1.22,1.22,1.22,1.22-.55,1.22-1.22-.55-1.22-1.22-1.22Z"/><path d="M174.59,165.64c-.68,0-1.22.55-1.22,1.22s.55,1.22,1.22,1.22,1.22-.55,1.22-1.22-.55-1.22-1.22-1.22Z"/><path d="M174.59,171.82c-.68,0-1.22.55-1.22,1.22s.55,1.22,1.22,1.22,1.22-.55,1.22-1.22-.55-1.22-1.22-1.22Z"/><path d="M174.59,178c-.68,0-1.22.55-1.22,1.22s.55,1.22,1.22,1.22,1.22-.55,1.22-1.22-.55-1.22-1.22-1.22Z"/><path d="M168.92,147.08c-.68,0-1.22.55-1.22,1.22s.55,1.22,1.22,1.22,1.22-.55,1.22-1.22-.55-1.22-1.22-1.22Z"/><path d="M168.92,153.27c-.68,0-1.22.55-1.22,1.22s.55,1.22,1.22,1.22,1.22-.55,1.22-1.22-.55-1.22-1.22-1.22Z"/><path d="M168.92,159.45c-.68,0-1.22.55-1.22,1.22s.55,1.22,1.22,1.22,1.22-.55,1.22-1.22-.55-1.22-1.22-1.22Z"/><path d="M168.92,165.64c-.68,0-1.22.55-1.22,1.22s.55,1.22,1.22,1.22,1.22-.55,1.22-1.22-.55-1.22-1.22-1.22Z"/><path d="M168.92,171.82c-.68,0-1.22.55-1.22,1.22s.55,1.22,1.22,1.22,1.22-.55,1.22-1.22-.55-1.22-1.22-1.22Z"/><path d="M168.92,178c-.68,0-1.22.55-1.22,1.22s.55,1.22,1.22,1.22,1.22-.55,1.22-1.22-.55-1.22-1.22-1.22Z"/><path d="M163.26,140.9c-.68,0-1.22.55-1.22,1.22s.55,1.22,1.22,1.22,1.22-.55,1.22-1.22-.55-1.22-1.22-1.22Z"/><path d="M163.26,147.08c-.68,0-1.22.55-1.22,1.22s.55,1.22,1.22,1.22,1.22-.55,1.22-1.22-.55-1.22-1.22-1.22Z"/><path d="M163.26,153.27c-.68,0-1.22.55-1.22,1.22s.55,1.22,1.22,1.22,1.22-.55,1.22-1.22-.55-1.22-1.22-1.22Z"/><path d="M163.26,159.45c-.68,0-1.22.55-1.22,1.22s.55,1.22,1.22,1.22,1.22-.55,1.22-1.22-.55-1.22-1.22-1.22Z"/><path d="M163.26,165.64c-.68,0-1.22.55-1.22,1.22s.55,1.22,1.22,1.22,1.22-.55,1.22-1.22-.55-1.22-1.22-1.22Z"/><path d="M163.26,171.82c-.68,0-1.22.55-1.22,1.22s.55,1.22,1.22,1.22,1.22-.55,1.22-1.22-.55-1.22-1.22-1.22Z"/><path d="M157.6,140.9c-.68,0-1.22.55-1.22,1.22s.55,1.22,1.22,1.22,1.22-.55,1.22-1.22-.55-1.22-1.22-1.22Z"/><path d="M157.6,147.08c-.68,0-1.22.55-1.22,1.22s.55,1.22,1.22,1.22,1.22-.55,1.22-1.22-.55-1.22-1.22-1.22Z"/><path d="M157.6,153.27c-.68,0-1.22.55-1.22,1.22s.55,1.22,1.22,1.22,1.22-.55,1.22-1.22-.55-1.22-1.22-1.22Z"/><path d="M157.6,159.45c-.68,0-1.22.55-1.22,1.22s.55,1.22,1.22,1.22,1.22-.55,1.22-1.22-.55-1.22-1.22-1.22Z"/><path d="M157.6,165.64c-.68,0-1.22.55-1.22,1.22s.55,1.22,1.22,1.22,1.22-.55,1.22-1.22-.55-1.22-1.22-1.22Z"/><path d="M151.93,140.9c-.68,0-1.22.55-1.22,1.22s.55,1.22,1.22,1.22,1.22-.55,1.22-1.22-.55-1.22-1.22-1.22Z"/><path d="M151.93,147.08c-.68,0-1.22.55-1.22,1.22s.55,1.22,1.22,1.22,1.22-.55,1.22-1.22-.55-1.22-1.22-1.22Z"/><path d="M151.93,153.27c-.68,0-1.22.55-1.22,1.22s.55,1.22,1.22,1.22,1.22-.55,1.22-1.22-.55-1.22-1.22-1.22Z"/><path d="M151.93,159.45c-.68,0-1.22.55-1.22,1.22s.55,1.22,1.22,1.22,1.22-.55,1.22-1.22-.55-1.22-1.22-1.22Z"/><path d="M146.27,147.08c-.68,0-1.22.55-1.22,1.22s.55,1.22,1.22,1.22,1.22-.55,1.22-1.22-.55-1.22-1.22-1.22Z"/><path d="M146.27,153.27c-.68,0-1.22.55-1.22,1.22s.55,1.22,1.22,1.22,1.22-.55,1.22-1.22-.55-1.22-1.22-1.22Z"/><path d="M219.89,171.82c-.68,0-1.22.55-1.22,1.22s.55,1.22,1.22,1.22,1.22-.55,1.22-1.22-.55-1.22-1.22-1.22Z"/><path d="M219.89,178c-.68,0-1.22.55-1.22,1.22s.55,1.22,1.22,1.22,1.22-.55,1.22-1.22-.55-1.22-1.22-1.22Z"/><path d="M219.89,184.19c-.68,0-1.22.55-1.22,1.22s.55,1.22,1.22,1.22,1.22-.55,1.22-1.22-.55-1.22-1.22-1.22Z"/><path d="M219.89,190.37c-.68,0-1.22.55-1.22,1.22s.55,1.22,1.22,1.22,1.22-.55,1.22-1.22-.55-1.22-1.22-1.22Z"/><path d="M225.55,196.77c-.68,0-1.22.55-1.22,1.22s.55,1.22,1.22,1.22,1.22-.55,1.22-1.22-.55-1.22-1.22-1.22Z"/><path d="M225.55,202.95c-.68,0-1.22.55-1.22,1.22s.55,1.22,1.22,1.22,1.22-.55,1.22-1.22-.55-1.22-1.22-1.22Z"/><path d="M225.55,209.14c-.68,0-1.22.55-1.22,1.22s.55,1.22,1.22,1.22,1.22-.55,1.22-1.22-.55-1.22-1.22-1.22Z"/><path d="M225.55,215.32c-.68,0-1.22.55-1.22,1.22s.55,1.22,1.22,1.22,1.22-.55,1.22-1.22-.55-1.22-1.22-1.22Z"/><path d="M225.55,221.51c-.68,0-1.22.55-1.22,1.22s.55,1.22,1.22,1.22,1.22-.55,1.22-1.22-.55-1.22-1.22-1.22Z"/><path d="M225.55,227.69c-.68,0-1.22.55-1.22,1.22s.55,1.22,1.22,1.22,1.22-.55,1.22-1.22-.55-1.22-1.22-1.22Z"/><path d="M225.55,233.87c-.68,0-1.22.55-1.22,1.22s.55,1.22,1.22,1.22,1.22-.55,1.22-1.22-.55-1.22-1.22-1.22Z"/><path d="M225.55,240.06c-.68,0-1.22.55-1.22,1.22s.55,1.22,1.22,1.22,1.22-.55,1.22-1.22-.55-1.22-1.22-1.22Z"/></g><path d="M214.22,240.06c-.68,0-1.22.55-1.22,1.22s.55,1.22,1.22,1.22,1.22-.55,1.22-1.22-.55-1.22-1.22-1.22Z" fill="var(--ill-line)"/><g fill="var(--ill-dot)"><path d="M219.89,196.77c-.68,0-1.22.55-1.22,1.22s.55,1.22,1.22,1.22,1.22-.55,1.22-1.22-.55-1.22-1.22-1.22Z"/><path d="M219.89,202.95c-.68,0-1.22.55-1.22,1.22s.55,1.22,1.22,1.22,1.22-.55,1.22-1.22-.55-1.22-1.22-1.22Z"/><path d="M219.89,209.14c-.68,0-1.22.55-1.22,1.22s.55,1.22,1.22,1.22,1.22-.55,1.22-1.22-.55-1.22-1.22-1.22Z"/><path d="M219.89,215.32c-.68,0-1.22.55-1.22,1.22s.55,1.22,1.22,1.22,1.22-.55,1.22-1.22-.55-1.22-1.22-1.22Z"/><path d="M219.89,221.51c-.68,0-1.22.55-1.22,1.22s.55,1.22,1.22,1.22,1.22-.55,1.22-1.22-.55-1.22-1.22-1.22Z"/><path d="M219.89,227.69c-.68,0-1.22.55-1.22,1.22s.55,1.22,1.22,1.22,1.22-.55,1.22-1.22-.55-1.22-1.22-1.22Z"/><path d="M219.89,233.87c-.68,0-1.22.55-1.22,1.22s.55,1.22,1.22,1.22,1.22-.55,1.22-1.22-.55-1.22-1.22-1.22Z"/><path d="M219.89,240.06c-.68,0-1.22.55-1.22,1.22s.55,1.22,1.22,1.22,1.22-.55,1.22-1.22-.55-1.22-1.22-1.22Z"/><path d="M326.86,122.35c-.68,0-1.22.55-1.22,1.22s.55,1.22,1.22,1.22,1.22-.55,1.22-1.22-.55-1.22-1.22-1.22Z"/><path d="M326.86,128.53c-.68,0-1.22.55-1.22,1.22s.55,1.22,1.22,1.22,1.22-.55,1.22-1.22-.55-1.22-1.22-1.22Z"/><path d="M326.86,134.72c-.68,0-1.22.55-1.22,1.22s.55,1.22,1.22,1.22,1.22-.55,1.22-1.22-.55-1.22-1.22-1.22Z"/><path d="M326.86,140.9c-.68,0-1.22.55-1.22,1.22s.55,1.22,1.22,1.22,1.22-.55,1.22-1.22-.55-1.22-1.22-1.22Z"/><path d="M321.2,122.35c-.68,0-1.22.55-1.22,1.22s.55,1.22,1.22,1.22,1.22-.55,1.22-1.22-.55-1.22-1.22-1.22Z"/><path d="M321.2,128.53c-.68,0-1.22.55-1.22,1.22s.55,1.22,1.22,1.22,1.22-.55,1.22-1.22-.55-1.22-1.22-1.22Z"/><path d="M321.2,134.72c-.68,0-1.22.55-1.22,1.22s.55,1.22,1.22,1.22,1.22-.55,1.22-1.22-.55-1.22-1.22-1.22Z"/><path d="M321.2,140.9c-.68,0-1.22.55-1.22,1.22s.55,1.22,1.22,1.22,1.22-.55,1.22-1.22-.55-1.22-1.22-1.22Z"/><path d="M321.2,147.08c-.68,0-1.22.55-1.22,1.22s.55,1.22,1.22,1.22,1.22-.55,1.22-1.22-.55-1.22-1.22-1.22Z"/><path d="M321.2,153.27c-.68,0-1.22.55-1.22,1.22s.55,1.22,1.22,1.22,1.22-.55,1.22-1.22-.55-1.22-1.22-1.22Z"/><path d="M315.53,122.35c-.68,0-1.22.55-1.22,1.22s.55,1.22,1.22,1.22,1.22-.55,1.22-1.22-.55-1.22-1.22-1.22Z"/><path d="M315.53,128.53c-.68,0-1.22.55-1.22,1.22s.55,1.22,1.22,1.22,1.22-.55,1.22-1.22-.55-1.22-1.22-1.22Z"/><path d="M315.53,134.72c-.68,0-1.22.55-1.22,1.22s.55,1.22,1.22,1.22,1.22-.55,1.22-1.22-.55-1.22-1.22-1.22Z"/><path d="M315.53,140.9c-.68,0-1.22.55-1.22,1.22s.55,1.22,1.22,1.22,1.22-.55,1.22-1.22-.55-1.22-1.22-1.22Z"/><path d="M315.53,147.08c-.68,0-1.22.55-1.22,1.22s.55,1.22,1.22,1.22,1.22-.55,1.22-1.22-.55-1.22-1.22-1.22Z"/><path d="M315.53,153.27c-.68,0-1.22.55-1.22,1.22s.55,1.22,1.22,1.22,1.22-.55,1.22-1.22-.55-1.22-1.22-1.22Z"/><path d="M315.53,159.45c-.68,0-1.22.55-1.22,1.22s.55,1.22,1.22,1.22,1.22-.55,1.22-1.22-.55-1.22-1.22-1.22Z"/><path d="M309.87,128.53c-.68,0-1.22.55-1.22,1.22s.55,1.22,1.22,1.22,1.22-.55,1.22-1.22-.55-1.22-1.22-1.22Z"/><path d="M309.87,134.72c-.68,0-1.22.55-1.22,1.22s.55,1.22,1.22,1.22,1.22-.55,1.22-1.22-.55-1.22-1.22-1.22Z"/><path d="M309.87,140.9c-.68,0-1.22.55-1.22,1.22s.55,1.22,1.22,1.22,1.22-.55,1.22-1.22-.55-1.22-1.22-1.22Z"/><path d="M309.87,147.08c-.68,0-1.22.55-1.22,1.22s.55,1.22,1.22,1.22,1.22-.55,1.22-1.22-.55-1.22-1.22-1.22Z"/><path d="M309.87,153.27c-.68,0-1.22.55-1.22,1.22s.55,1.22,1.22,1.22,1.22-.55,1.22-1.22-.55-1.22-1.22-1.22Z"/><path d="M309.87,159.45c-.68,0-1.22.55-1.22,1.22s.55,1.22,1.22,1.22,1.22-.55,1.22-1.22-.55-1.22-1.22-1.22Z"/><path d="M309.87,165.64c-.68,0-1.22.55-1.22,1.22s.55,1.22,1.22,1.22,1.22-.55,1.22-1.22-.55-1.22-1.22-1.22Z"/><path d="M304.21,140.9c-.68,0-1.22.55-1.22,1.22s.55,1.22,1.22,1.22,1.22-.55,1.22-1.22-.55-1.22-1.22-1.22Z"/><path d="M304.21,147.08c-.68,0-1.22.55-1.22,1.22s.55,1.22,1.22,1.22,1.22-.55,1.22-1.22-.55-1.22-1.22-1.22Z"/><path d="M304.21,153.27c-.68,0-1.22.55-1.22,1.22s.55,1.22,1.22,1.22,1.22-.55,1.22-1.22-.55-1.22-1.22-1.22Z"/><path d="M304.21,159.45c-.68,0-1.22.55-1.22,1.22s.55,1.22,1.22,1.22,1.22-.55,1.22-1.22-.55-1.22-1.22-1.22Z"/><path d="M304.21,165.64c-.68,0-1.22.55-1.22,1.22s.55,1.22,1.22,1.22,1.22-.55,1.22-1.22-.55-1.22-1.22-1.22Z"/><path d="M304.21,171.82c-.68,0-1.22.55-1.22,1.22s.55,1.22,1.22,1.22,1.22-.55,1.22-1.22-.55-1.22-1.22-1.22Z"/><path d="M298.55,147.08c-.68,0-1.22.55-1.22,1.22s.55,1.22,1.22,1.22,1.22-.55,1.22-1.22-.55-1.22-1.22-1.22Z"/><path d="M298.55,153.27c-.68,0-1.22.55-1.22,1.22s.55,1.22,1.22,1.22,1.22-.55,1.22-1.22-.55-1.22-1.22-1.22Z"/><path d="M298.55,159.45c-.68,0-1.22.55-1.22,1.22s.55,1.22,1.22,1.22,1.22-.55,1.22-1.22-.55-1.22-1.22-1.22Z"/><path d="M298.55,165.64c-.68,0-1.22.55-1.22,1.22s.55,1.22,1.22,1.22,1.22-.55,1.22-1.22-.55-1.22-1.22-1.22Z"/><path d="M298.55,171.82c-.68,0-1.22.55-1.22,1.22s.55,1.22,1.22,1.22,1.22-.55,1.22-1.22-.55-1.22-1.22-1.22Z"/><path d="M298.55,178c-.68,0-1.22.55-1.22,1.22s.55,1.22,1.22,1.22,1.22-.55,1.22-1.22-.55-1.22-1.22-1.22Z"/><path d="M292.88,147.08c-.68,0-1.22.55-1.22,1.22s.55,1.22,1.22,1.22,1.22-.55,1.22-1.22-.55-1.22-1.22-1.22Z"/><path d="M292.88,153.27c-.68,0-1.22.55-1.22,1.22s.55,1.22,1.22,1.22,1.22-.55,1.22-1.22-.55-1.22-1.22-1.22Z"/><path d="M292.88,159.45c-.68,0-1.22.55-1.22,1.22s.55,1.22,1.22,1.22,1.22-.55,1.22-1.22-.55-1.22-1.22-1.22Z"/><path d="M292.88,165.64c-.68,0-1.22.55-1.22,1.22s.55,1.22,1.22,1.22,1.22-.55,1.22-1.22-.55-1.22-1.22-1.22Z"/><path d="M292.88,171.82c-.68,0-1.22.55-1.22,1.22s.55,1.22,1.22,1.22,1.22-.55,1.22-1.22-.55-1.22-1.22-1.22Z"/><path d="M292.88,178c-.68,0-1.22.55-1.22,1.22s.55,1.22,1.22,1.22,1.22-.55,1.22-1.22-.55-1.22-1.22-1.22Z"/><path d="M292.88,184.19c-.68,0-1.22.55-1.22,1.22s.55,1.22,1.22,1.22,1.22-.55,1.22-1.22-.55-1.22-1.22-1.22Z"/><path d="M287.22,153.27c-.68,0-1.22.55-1.22,1.22s.55,1.22,1.22,1.22,1.22-.55,1.22-1.22-.55-1.22-1.22-1.22Z"/><path d="M287.22,159.45c-.68,0-1.22.55-1.22,1.22s.55,1.22,1.22,1.22,1.22-.55,1.22-1.22-.55-1.22-1.22-1.22Z"/><path d="M287.22,165.64c-.68,0-1.22.55-1.22,1.22s.55,1.22,1.22,1.22,1.22-.55,1.22-1.22-.55-1.22-1.22-1.22Z"/><path d="M287.22,171.82c-.68,0-1.22.55-1.22,1.22s.55,1.22,1.22,1.22,1.22-.55,1.22-1.22-.55-1.22-1.22-1.22Z"/><path d="M287.22,178c-.68,0-1.22.55-1.22,1.22s.55,1.22,1.22,1.22,1.22-.55,1.22-1.22-.55-1.22-1.22-1.22Z"/><path d="M287.22,184.19c-.68,0-1.22.55-1.22,1.22s.55,1.22,1.22,1.22,1.22-.55,1.22-1.22-.55-1.22-1.22-1.22Z"/><path d="M287.22,190.37c-.68,0-1.22.55-1.22,1.22s.55,1.22,1.22,1.22,1.22-.55,1.22-1.22-.55-1.22-1.22-1.22Z"/><path d="M281.56,159.45c-.68,0-1.22.55-1.22,1.22s.55,1.22,1.22,1.22,1.22-.55,1.22-1.22-.55-1.22-1.22-1.22Z"/><path d="M281.56,165.64c-.68,0-1.22.55-1.22,1.22s.55,1.22,1.22,1.22,1.22-.55,1.22-1.22-.55-1.22-1.22-1.22Z"/><path d="M281.56,171.82c-.68,0-1.22.55-1.22,1.22s.55,1.22,1.22,1.22,1.22-.55,1.22-1.22-.55-1.22-1.22-1.22Z"/><path d="M281.56,178c-.68,0-1.22.55-1.22,1.22s.55,1.22,1.22,1.22,1.22-.55,1.22-1.22-.55-1.22-1.22-1.22Z"/><path d="M281.56,184.19c-.68,0-1.22.55-1.22,1.22s.55,1.22,1.22,1.22,1.22-.55,1.22-1.22-.55-1.22-1.22-1.22Z"/><path d="M281.56,190.37c-.68,0-1.22.55-1.22,1.22s.55,1.22,1.22,1.22,1.22-.55,1.22-1.22-.55-1.22-1.22-1.22Z"/><path d="M275.9,159.45c-.68,0-1.22.55-1.22,1.22s.55,1.22,1.22,1.22,1.22-.55,1.22-1.22-.55-1.22-1.22-1.22Z"/><path d="M275.9,165.64c-.68,0-1.22.55-1.22,1.22s.55,1.22,1.22,1.22,1.22-.55,1.22-1.22-.55-1.22-1.22-1.22Z"/><path d="M275.9,171.82c-.68,0-1.22.55-1.22,1.22s.55,1.22,1.22,1.22,1.22-.55,1.22-1.22-.55-1.22-1.22-1.22Z"/><path d="M275.9,178c-.68,0-1.22.55-1.22,1.22s.55,1.22,1.22,1.22,1.22-.55,1.22-1.22-.55-1.22-1.22-1.22Z"/><path d="M275.9,184.19c-.68,0-1.22.55-1.22,1.22s.55,1.22,1.22,1.22,1.22-.55,1.22-1.22-.55-1.22-1.22-1.22Z"/><path d="M275.9,190.37c-.68,0-1.22.55-1.22,1.22s.55,1.22,1.22,1.22,1.22-.55,1.22-1.22-.55-1.22-1.22-1.22Z"/><path d="M270.23,165.64c-.68,0-1.22.55-1.22,1.22s.55,1.22,1.22,1.22,1.22-.55,1.22-1.22-.55-1.22-1.22-1.22Z"/><path d="M270.23,171.82c-.68,0-1.22.55-1.22,1.22s.55,1.22,1.22,1.22,1.22-.55,1.22-1.22-.55-1.22-1.22-1.22Z"/><path d="M270.23,178c-.68,0-1.22.55-1.22,1.22s.55,1.22,1.22,1.22,1.22-.55,1.22-1.22-.55-1.22-1.22-1.22Z"/><path d="M270.23,184.19c-.68,0-1.22.55-1.22,1.22s.55,1.22,1.22,1.22,1.22-.55,1.22-1.22-.55-1.22-1.22-1.22Z"/><path d="M270.23,190.37c-.68,0-1.22.55-1.22,1.22s.55,1.22,1.22,1.22,1.22-.55,1.22-1.22-.55-1.22-1.22-1.22Z"/><path d="M264.57,165.64c-.68,0-1.22.55-1.22,1.22s.55,1.22,1.22,1.22,1.22-.55,1.22-1.22-.55-1.22-1.22-1.22Z"/><path d="M264.57,171.82c-.68,0-1.22.55-1.22,1.22s.55,1.22,1.22,1.22,1.22-.55,1.22-1.22-.55-1.22-1.22-1.22Z"/><path d="M264.57,178c-.68,0-1.22.55-1.22,1.22s.55,1.22,1.22,1.22,1.22-.55,1.22-1.22-.55-1.22-1.22-1.22Z"/><path d="M264.57,184.19c-.68,0-1.22.55-1.22,1.22s.55,1.22,1.22,1.22,1.22-.55,1.22-1.22-.55-1.22-1.22-1.22Z"/><path d="M264.57,190.37c-.68,0-1.22.55-1.22,1.22s.55,1.22,1.22,1.22,1.22-.55,1.22-1.22-.55-1.22-1.22-1.22Z"/><path d="M258.91,171.82c-.68,0-1.22.55-1.22,1.22s.55,1.22,1.22,1.22,1.22-.55,1.22-1.22-.55-1.22-1.22-1.22Z"/><path d="M258.91,178c-.68,0-1.22.55-1.22,1.22s.55,1.22,1.22,1.22,1.22-.55,1.22-1.22-.55-1.22-1.22-1.22Z"/><path d="M258.91,184.19c-.68,0-1.22.55-1.22,1.22s.55,1.22,1.22,1.22,1.22-.55,1.22-1.22-.55-1.22-1.22-1.22Z"/><path d="M258.91,190.37c-.68,0-1.22.55-1.22,1.22s.55,1.22,1.22,1.22,1.22-.55,1.22-1.22-.55-1.22-1.22-1.22Z"/><path d="M253.25,171.82c-.68,0-1.22.55-1.22,1.22s.55,1.22,1.22,1.22,1.22-.55,1.22-1.22-.55-1.22-1.22-1.22Z"/><path d="M253.25,178c-.68,0-1.22.55-1.22,1.22s.55,1.22,1.22,1.22,1.22-.55,1.22-1.22-.55-1.22-1.22-1.22Z"/><path d="M253.25,184.19c-.68,0-1.22.55-1.22,1.22s.55,1.22,1.22,1.22,1.22-.55,1.22-1.22-.55-1.22-1.22-1.22Z"/><path d="M253.25,190.37c-.68,0-1.22.55-1.22,1.22s.55,1.22,1.22,1.22,1.22-.55,1.22-1.22-.55-1.22-1.22-1.22Z"/><path d="M247.58,171.82c-.68,0-1.22.55-1.22,1.22s.55,1.22,1.22,1.22,1.22-.55,1.22-1.22-.55-1.22-1.22-1.22Z"/><path d="M247.58,178c-.68,0-1.22.55-1.22,1.22s.55,1.22,1.22,1.22,1.22-.55,1.22-1.22-.55-1.22-1.22-1.22Z"/><path d="M247.58,184.19c-.68,0-1.22.55-1.22,1.22s.55,1.22,1.22,1.22,1.22-.55,1.22-1.22-.55-1.22-1.22-1.22Z"/><path d="M247.58,190.37c-.68,0-1.22.55-1.22,1.22s.55,1.22,1.22,1.22,1.22-.55,1.22-1.22-.55-1.22-1.22-1.22Z"/><path d="M241.92,171.82c-.68,0-1.22.55-1.22,1.22s.55,1.22,1.22,1.22,1.22-.55,1.22-1.22-.55-1.22-1.22-1.22Z"/><path d="M241.92,178c-.68,0-1.22.55-1.22,1.22s.55,1.22,1.22,1.22,1.22-.55,1.22-1.22-.55-1.22-1.22-1.22Z"/><path d="M241.92,184.19c-.68,0-1.22.55-1.22,1.22s.55,1.22,1.22,1.22,1.22-.55,1.22-1.22-.55-1.22-1.22-1.22Z"/><path d="M241.92,190.37c-.68,0-1.22.55-1.22,1.22s.55,1.22,1.22,1.22,1.22-.55,1.22-1.22-.55-1.22-1.22-1.22Z"/><path d="M236.26,171.82c-.68,0-1.22.55-1.22,1.22s.55,1.22,1.22,1.22,1.22-.55,1.22-1.22-.55-1.22-1.22-1.22Z"/><path d="M236.26,178c-.68,0-1.22.55-1.22,1.22s.55,1.22,1.22,1.22,1.22-.55,1.22-1.22-.55-1.22-1.22-1.22Z"/><path d="M236.26,184.19c-.68,0-1.22.55-1.22,1.22s.55,1.22,1.22,1.22,1.22-.55,1.22-1.22-.55-1.22-1.22-1.22Z"/><path d="M236.26,190.37c-.68,0-1.22.55-1.22,1.22s.55,1.22,1.22,1.22,1.22-.55,1.22-1.22-.55-1.22-1.22-1.22Z"/><path d="M230.6,171.82c-.68,0-1.22.55-1.22,1.22s.55,1.22,1.22,1.22,1.22-.55,1.22-1.22-.55-1.22-1.22-1.22Z"/><path d="M230.6,178c-.68,0-1.22.55-1.22,1.22s.55,1.22,1.22,1.22,1.22-.55,1.22-1.22-.55-1.22-1.22-1.22Z"/><path d="M230.6,184.19c-.68,0-1.22.55-1.22,1.22s.55,1.22,1.22,1.22,1.22-.55,1.22-1.22-.55-1.22-1.22-1.22Z"/><path d="M230.6,190.37c-.68,0-1.22.55-1.22,1.22s.55,1.22,1.22,1.22,1.22-.55,1.22-1.22-.55-1.22-1.22-1.22Z"/><path d="M292.88,221.51c-.68,0-1.22.55-1.22,1.22s.55,1.22,1.22,1.22,1.22-.55,1.22-1.22-.55-1.22-1.22-1.22Z"/><path d="M292.88,227.69c-.68,0-1.22.55-1.22,1.22s.55,1.22,1.22,1.22,1.22-.55,1.22-1.22-.55-1.22-1.22-1.22Z"/><path d="M292.88,233.87c-.68,0-1.22.55-1.22,1.22s.55,1.22,1.22,1.22,1.22-.55,1.22-1.22-.55-1.22-1.22-1.22Z"/><path d="M292.88,240.06c-.68,0-1.22.55-1.22,1.22s.55,1.22,1.22,1.22,1.22-.55,1.22-1.22-.55-1.22-1.22-1.22Z"/><path d="M287.22,196.77c-.68,0-1.22.55-1.22,1.22s.55,1.22,1.22,1.22,1.22-.55,1.22-1.22-.55-1.22-1.22-1.22Z"/><path d="M287.22,202.95c-.68,0-1.22.55-1.22,1.22s.55,1.22,1.22,1.22,1.22-.55,1.22-1.22-.55-1.22-1.22-1.22Z"/><path d="M287.22,209.14c-.68,0-1.22.55-1.22,1.22s.55,1.22,1.22,1.22,1.22-.55,1.22-1.22-.55-1.22-1.22-1.22Z"/><path d="M287.22,215.32c-.68,0-1.22.55-1.22,1.22s.55,1.22,1.22,1.22,1.22-.55,1.22-1.22-.55-1.22-1.22-1.22Z"/><path d="M287.22,221.51c-.68,0-1.22.55-1.22,1.22s.55,1.22,1.22,1.22,1.22-.55,1.22-1.22-.55-1.22-1.22-1.22Z"/><path d="M287.22,227.69c-.68,0-1.22.55-1.22,1.22s.55,1.22,1.22,1.22,1.22-.55,1.22-1.22-.55-1.22-1.22-1.22Z"/><path d="M287.22,233.87c-.68,0-1.22.55-1.22,1.22s.55,1.22,1.22,1.22,1.22-.55,1.22-1.22-.55-1.22-1.22-1.22Z"/><path d="M287.22,240.06c-.68,0-1.22.55-1.22,1.22s.55,1.22,1.22,1.22,1.22-.55,1.22-1.22-.55-1.22-1.22-1.22Z"/><path d="M281.56,196.77c-.68,0-1.22.55-1.22,1.22s.55,1.22,1.22,1.22,1.22-.55,1.22-1.22-.55-1.22-1.22-1.22Z"/><path d="M281.56,202.95c-.68,0-1.22.55-1.22,1.22s.55,1.22,1.22,1.22,1.22-.55,1.22-1.22-.55-1.22-1.22-1.22Z"/><path d="M281.56,209.14c-.68,0-1.22.55-1.22,1.22s.55,1.22,1.22,1.22,1.22-.55,1.22-1.22-.55-1.22-1.22-1.22Z"/><path d="M281.56,215.32c-.68,0-1.22.55-1.22,1.22s.55,1.22,1.22,1.22,1.22-.55,1.22-1.22-.55-1.22-1.22-1.22Z"/><path d="M281.56,221.51c-.68,0-1.22.55-1.22,1.22s.55,1.22,1.22,1.22,1.22-.55,1.22-1.22-.55-1.22-1.22-1.22Z"/><path d="M281.56,227.69c-.68,0-1.22.55-1.22,1.22s.55,1.22,1.22,1.22,1.22-.55,1.22-1.22-.55-1.22-1.22-1.22Z"/><path d="M281.56,233.87c-.68,0-1.22.55-1.22,1.22s.55,1.22,1.22,1.22,1.22-.55,1.22-1.22-.55-1.22-1.22-1.22Z"/><path d="M281.56,240.06c-.68,0-1.22.55-1.22,1.22s.55,1.22,1.22,1.22,1.22-.55,1.22-1.22-.55-1.22-1.22-1.22Z"/><path d="M275.9,196.77c-.68,0-1.22.55-1.22,1.22s.55,1.22,1.22,1.22,1.22-.55,1.22-1.22-.55-1.22-1.22-1.22Z"/><path d="M275.9,202.95c-.68,0-1.22.55-1.22,1.22s.55,1.22,1.22,1.22,1.22-.55,1.22-1.22-.55-1.22-1.22-1.22Z"/><path d="M275.9,209.14c-.68,0-1.22.55-1.22,1.22s.55,1.22,1.22,1.22,1.22-.55,1.22-1.22-.55-1.22-1.22-1.22Z"/><path d="M275.9,215.32c-.68,0-1.22.55-1.22,1.22s.55,1.22,1.22,1.22,1.22-.55,1.22-1.22-.55-1.22-1.22-1.22Z"/><path d="M275.9,221.51c-.68,0-1.22.55-1.22,1.22s.55,1.22,1.22,1.22,1.22-.55,1.22-1.22-.55-1.22-1.22-1.22Z"/><path d="M275.9,227.69c-.68,0-1.22.55-1.22,1.22s.55,1.22,1.22,1.22,1.22-.55,1.22-1.22-.55-1.22-1.22-1.22Z"/><path d="M275.9,233.87c-.68,0-1.22.55-1.22,1.22s.55,1.22,1.22,1.22,1.22-.55,1.22-1.22-.55-1.22-1.22-1.22Z"/><path d="M275.9,240.06c-.68,0-1.22.55-1.22,1.22s.55,1.22,1.22,1.22,1.22-.55,1.22-1.22-.55-1.22-1.22-1.22Z"/><path d="M270.23,196.77c-.68,0-1.22.55-1.22,1.22s.55,1.22,1.22,1.22,1.22-.55,1.22-1.22-.55-1.22-1.22-1.22Z"/><path d="M270.23,202.95c-.68,0-1.22.55-1.22,1.22s.55,1.22,1.22,1.22,1.22-.55,1.22-1.22-.55-1.22-1.22-1.22Z"/><path d="M270.23,209.14c-.68,0-1.22.55-1.22,1.22s.55,1.22,1.22,1.22,1.22-.55,1.22-1.22-.55-1.22-1.22-1.22Z"/><path d="M270.23,215.32c-.68,0-1.22.55-1.22,1.22s.55,1.22,1.22,1.22,1.22-.55,1.22-1.22-.55-1.22-1.22-1.22Z"/><path d="M270.23,221.51c-.68,0-1.22.55-1.22,1.22s.55,1.22,1.22,1.22,1.22-.55,1.22-1.22-.55-1.22-1.22-1.22Z"/><path d="M270.23,227.69c-.68,0-1.22.55-1.22,1.22s.55,1.22,1.22,1.22,1.22-.55,1.22-1.22-.55-1.22-1.22-1.22Z"/><path d="M270.23,233.87c-.68,0-1.22.55-1.22,1.22s.55,1.22,1.22,1.22,1.22-.55,1.22-1.22-.55-1.22-1.22-1.22Z"/><path d="M270.23,240.06c-.68,0-1.22.55-1.22,1.22s.55,1.22,1.22,1.22,1.22-.55,1.22-1.22-.55-1.22-1.22-1.22Z"/><path d="M264.57,196.77c-.68,0-1.22.55-1.22,1.22s.55,1.22,1.22,1.22,1.22-.55,1.22-1.22-.55-1.22-1.22-1.22Z"/><path d="M264.57,202.95c-.68,0-1.22.55-1.22,1.22s.55,1.22,1.22,1.22,1.22-.55,1.22-1.22-.55-1.22-1.22-1.22Z"/><path d="M264.57,209.14c-.68,0-1.22.55-1.22,1.22s.55,1.22,1.22,1.22,1.22-.55,1.22-1.22-.55-1.22-1.22-1.22Z"/><path d="M264.57,215.32c-.68,0-1.22.55-1.22,1.22s.55,1.22,1.22,1.22,1.22-.55,1.22-1.22-.55-1.22-1.22-1.22Z"/><path d="M264.57,221.51c-.68,0-1.22.55-1.22,1.22s.55,1.22,1.22,1.22,1.22-.55,1.22-1.22-.55-1.22-1.22-1.22Z"/><path d="M264.57,227.69c-.68,0-1.22.55-1.22,1.22s.55,1.22,1.22,1.22,1.22-.55,1.22-1.22-.55-1.22-1.22-1.22Z"/><path d="M264.57,233.87c-.68,0-1.22.55-1.22,1.22s.55,1.22,1.22,1.22,1.22-.55,1.22-1.22-.55-1.22-1.22-1.22Z"/><path d="M264.57,240.06c-.68,0-1.22.55-1.22,1.22s.55,1.22,1.22,1.22,1.22-.55,1.22-1.22-.55-1.22-1.22-1.22Z"/><path d="M258.91,196.77c-.68,0-1.22.55-1.22,1.22s.55,1.22,1.22,1.22,1.22-.55,1.22-1.22-.55-1.22-1.22-1.22Z"/><path d="M258.91,202.95c-.68,0-1.22.55-1.22,1.22s.55,1.22,1.22,1.22,1.22-.55,1.22-1.22-.55-1.22-1.22-1.22Z"/><path d="M258.91,209.14c-.68,0-1.22.55-1.22,1.22s.55,1.22,1.22,1.22,1.22-.55,1.22-1.22-.55-1.22-1.22-1.22Z"/><path d="M258.91,215.32c-.68,0-1.22.55-1.22,1.22s.55,1.22,1.22,1.22,1.22-.55,1.22-1.22-.55-1.22-1.22-1.22Z"/><path d="M258.91,221.51c-.68,0-1.22.55-1.22,1.22s.55,1.22,1.22,1.22,1.22-.55,1.22-1.22-.55-1.22-1.22-1.22Z"/><path d="M258.91,227.69c-.68,0-1.22.55-1.22,1.22s.55,1.22,1.22,1.22,1.22-.55,1.22-1.22-.55-1.22-1.22-1.22Z"/><path d="M258.91,233.87c-.68,0-1.22.55-1.22,1.22s.55,1.22,1.22,1.22,1.22-.55,1.22-1.22-.55-1.22-1.22-1.22Z"/><path d="M258.91,240.06c-.68,0-1.22.55-1.22,1.22s.55,1.22,1.22,1.22,1.22-.55,1.22-1.22-.55-1.22-1.22-1.22Z"/><path d="M253.25,196.77c-.68,0-1.22.55-1.22,1.22s.55,1.22,1.22,1.22,1.22-.55,1.22-1.22-.55-1.22-1.22-1.22Z"/><path d="M253.25,202.95c-.68,0-1.22.55-1.22,1.22s.55,1.22,1.22,1.22,1.22-.55,1.22-1.22-.55-1.22-1.22-1.22Z"/><path d="M253.25,209.14c-.68,0-1.22.55-1.22,1.22s.55,1.22,1.22,1.22,1.22-.55,1.22-1.22-.55-1.22-1.22-1.22Z"/><path d="M253.25,215.32c-.68,0-1.22.55-1.22,1.22s.55,1.22,1.22,1.22,1.22-.55,1.22-1.22-.55-1.22-1.22-1.22Z"/><path d="M253.25,221.51c-.68,0-1.22.55-1.22,1.22s.55,1.22,1.22,1.22,1.22-.55,1.22-1.22-.55-1.22-1.22-1.22Z"/><path d="M253.25,227.69c-.68,0-1.22.55-1.22,1.22s.55,1.22,1.22,1.22,1.22-.55,1.22-1.22-.55-1.22-1.22-1.22Z"/><path d="M253.25,233.87c-.68,0-1.22.55-1.22,1.22s.55,1.22,1.22,1.22,1.22-.55,1.22-1.22-.55-1.22-1.22-1.22Z"/><path d="M253.25,240.06c-.68,0-1.22.55-1.22,1.22s.55,1.22,1.22,1.22,1.22-.55,1.22-1.22-.55-1.22-1.22-1.22Z"/><path d="M247.58,196.77c-.68,0-1.22.55-1.22,1.22s.55,1.22,1.22,1.22,1.22-.55,1.22-1.22-.55-1.22-1.22-1.22Z"/><path d="M247.58,202.95c-.68,0-1.22.55-1.22,1.22s.55,1.22,1.22,1.22,1.22-.55,1.22-1.22-.55-1.22-1.22-1.22Z"/><path d="M247.58,209.14c-.68,0-1.22.55-1.22,1.22s.55,1.22,1.22,1.22,1.22-.55,1.22-1.22-.55-1.22-1.22-1.22Z"/><path d="M247.58,215.32c-.68,0-1.22.55-1.22,1.22s.55,1.22,1.22,1.22,1.22-.55,1.22-1.22-.55-1.22-1.22-1.22Z"/><path d="M247.58,221.51c-.68,0-1.22.55-1.22,1.22s.55,1.22,1.22,1.22,1.22-.55,1.22-1.22-.55-1.22-1.22-1.22Z"/><path d="M247.58,227.69c-.68,0-1.22.55-1.22,1.22s.55,1.22,1.22,1.22,1.22-.55,1.22-1.22-.55-1.22-1.22-1.22Z"/><path d="M247.58,233.87c-.68,0-1.22.55-1.22,1.22s.55,1.22,1.22,1.22,1.22-.55,1.22-1.22-.55-1.22-1.22-1.22Z"/><path d="M247.58,240.06c-.68,0-1.22.55-1.22,1.22s.55,1.22,1.22,1.22,1.22-.55,1.22-1.22-.55-1.22-1.22-1.22Z"/><path d="M241.92,196.77c-.68,0-1.22.55-1.22,1.22s.55,1.22,1.22,1.22,1.22-.55,1.22-1.22-.55-1.22-1.22-1.22Z"/><path d="M241.92,202.95c-.68,0-1.22.55-1.22,1.22s.55,1.22,1.22,1.22,1.22-.55,1.22-1.22-.55-1.22-1.22-1.22Z"/><path d="M241.92,209.14c-.68,0-1.22.55-1.22,1.22s.55,1.22,1.22,1.22,1.22-.55,1.22-1.22-.55-1.22-1.22-1.22Z"/><path d="M241.92,215.32c-.68,0-1.22.55-1.22,1.22s.55,1.22,1.22,1.22,1.22-.55,1.22-1.22-.55-1.22-1.22-1.22Z"/><path d="M241.92,221.51c-.68,0-1.22.55-1.22,1.22s.55,1.22,1.22,1.22,1.22-.55,1.22-1.22-.55-1.22-1.22-1.22Z"/><path d="M241.92,227.69c-.68,0-1.22.55-1.22,1.22s.55,1.22,1.22,1.22,1.22-.55,1.22-1.22-.55-1.22-1.22-1.22Z"/><path d="M241.92,233.87c-.68,0-1.22.55-1.22,1.22s.55,1.22,1.22,1.22,1.22-.55,1.22-1.22-.55-1.22-1.22-1.22Z"/><path d="M241.92,240.06c-.68,0-1.22.55-1.22,1.22s.55,1.22,1.22,1.22,1.22-.55,1.22-1.22-.55-1.22-1.22-1.22Z"/><path d="M236.26,196.77c-.68,0-1.22.55-1.22,1.22s.55,1.22,1.22,1.22,1.22-.55,1.22-1.22-.55-1.22-1.22-1.22Z"/><path d="M236.26,202.95c-.68,0-1.22.55-1.22,1.22s.55,1.22,1.22,1.22,1.22-.55,1.22-1.22-.55-1.22-1.22-1.22Z"/><path d="M236.26,209.14c-.68,0-1.22.55-1.22,1.22s.55,1.22,1.22,1.22,1.22-.55,1.22-1.22-.55-1.22-1.22-1.22Z"/><path d="M236.26,215.32c-.68,0-1.22.55-1.22,1.22s.55,1.22,1.22,1.22,1.22-.55,1.22-1.22-.55-1.22-1.22-1.22Z"/><path d="M236.26,221.51c-.68,0-1.22.55-1.22,1.22s.55,1.22,1.22,1.22,1.22-.55,1.22-1.22-.55-1.22-1.22-1.22Z"/><path d="M236.26,227.69c-.68,0-1.22.55-1.22,1.22s.55,1.22,1.22,1.22,1.22-.55,1.22-1.22-.55-1.22-1.22-1.22Z"/><path d="M236.26,233.87c-.68,0-1.22.55-1.22,1.22s.55,1.22,1.22,1.22,1.22-.55,1.22-1.22-.55-1.22-1.22-1.22Z"/><path d="M236.26,240.06c-.68,0-1.22.55-1.22,1.22s.55,1.22,1.22,1.22,1.22-.55,1.22-1.22-.55-1.22-1.22-1.22Z"/><path d="M230.6,196.77c-.68,0-1.22.55-1.22,1.22s.55,1.22,1.22,1.22,1.22-.55,1.22-1.22-.55-1.22-1.22-1.22Z"/><path d="M230.6,202.95c-.68,0-1.22.55-1.22,1.22s.55,1.22,1.22,1.22,1.22-.55,1.22-1.22-.55-1.22-1.22-1.22Z"/><path d="M230.6,209.14c-.68,0-1.22.55-1.22,1.22s.55,1.22,1.22,1.22,1.22-.55,1.22-1.22-.55-1.22-1.22-1.22Z"/><path d="M230.6,215.32c-.68,0-1.22.55-1.22,1.22s.55,1.22,1.22,1.22,1.22-.55,1.22-1.22-.55-1.22-1.22-1.22Z"/><path d="M230.6,221.51c-.68,0-1.22.55-1.22,1.22s.55,1.22,1.22,1.22,1.22-.55,1.22-1.22-.55-1.22-1.22-1.22Z"/><path d="M230.6,227.69c-.68,0-1.22.55-1.22,1.22s.55,1.22,1.22,1.22,1.22-.55,1.22-1.22-.55-1.22-1.22-1.22Z"/><path d="M230.6,233.87c-.68,0-1.22.55-1.22,1.22s.55,1.22,1.22,1.22,1.22-.55,1.22-1.22-.55-1.22-1.22-1.22Z"/><path d="M230.6,240.06c-.68,0-1.22.55-1.22,1.22s.55,1.22,1.22,1.22,1.22-.55,1.22-1.22-.55-1.22-1.22-1.22Z"/></g></g><g fill="none" stroke="var(--ill-line)"><polyline points="288.64 179.09 294.37 247.96 222.9 244.83" stroke-miterlimit="10" stroke-width="3"/><path d="M286.55,247.96s1.04,46.96,7.83,58.96c6.78,12,41.88,64.01,41.88,64.01,0,0-20.87,23.65-39.13,25.65,0,0-40.31-64.1-48.14-76.62-7.83-12.52-8.59-51.65-8.59-51.65" stroke-miterlimit="10" stroke-width="3"/><path d="M210.37,251.09s-19.3,41.74-24,58.96c-4.7,17.22-16.98,99.86-16.98,99.86,0,0,21.42,16.83,46.72,8.18,0,0,7.3-85.52,12.52-95.47,5.22-9.96,13.75-27.72,13.75-27.72" stroke-miterlimit="10" stroke-width="3"/><path d="M289.6,190.63s37.39-32.41,46.91-67.37l13.96-14.87" stroke-miterlimit="10" stroke-width="3"/><path d="M326.29,107.7c-1.79-3.64-3.58-7.27-5.36-10.91-.53-1.09-1.22-2.3-2.4-2.55-1.28-.27-2.53.79-2.94,2.03s-.2,2.59.02,3.88c.57,3.36,1.74,7.16,2.31,10.52-5.6,20.04-30.31,48.99-46.75,48.99-6.01,6.64-15.04,10.02-24,9.66" stroke-miterlimit="10" stroke-width="3"/><path d="M323.92,102.89c1.24-1.27,11.67-13.27,20.28-16.92" stroke-miterlimit="10" stroke-width="3"/><path d="M332.46,104.48s10.43-9.91,18-13.83" stroke-miterlimit="10" stroke-width="3"/><path d="M338.2,108.4s8.87-7.83,14.09-10.83" stroke-miterlimit="10" stroke-width="3"/><line x1="222.9" y1="185.88" x2="213.64" y2="241.31" stroke-miterlimit="10" stroke-width="3"/><path d="M230.53,166.32c-10.83,2.96-53.29,2.45-72.66-37.06.71-2.6.79-5.67.69-8.36-.09-2.69-1.13-5.48-3.31-7.06-1.98-1.43-4.65-1.66-7.03-1.12-2.39.55-4.55,1.79-6.61,3.11-2.07,1.32-4.35,3.49-3.55,5.81.71,2.06,3.4,2.6,5.56,2.33s4.4-1.02,6.45-.27" stroke-miterlimit="10" stroke-width="3"/><path d="M129.69,122.75c.6,2.96,3.09,5.24,5.87,6.41,2.78,1.17,5.85,1.4,8.86,1.61" stroke-miterlimit="10" stroke-width="3"/><path d="M127.71,131.7c3.22,2.81,7.6,3.81,11.78,4.72" stroke-miterlimit="10" stroke-width="3"/><path d="M128.35,137.39c.07,1.2,1.13,2.08,2.15,2.71,3.03,1.86,6.56,2.91,10.11,2.99.28,4.16,25.81,54.13,80.46,54.13" stroke-miterlimit="10" stroke-width="3"/><path d="M233.02,124.25c-3.14,8.52-9.42,37.54,9.75,38.27,19.17.73,22.26-13.53,22.26-13.53,0,0,10.76,1.4,9.97-6.6-.59-5.96-3.86-.46-8.68-4.12-4.82-3.65-8.33-21.33-8.33-21.33,0,0-5.4,4.09-13.88,3.8-8.47-.29-23.76-7.89-17.87-14.75,5.89-6.87,14.36.29,22.11,0s24.1,8.33,26.44,15.78c2.34,7.45.62,14.02.62,14.02" stroke-miterlimit="10" stroke-width="3"/><polyline points="242.77 105.23 267.35 88.02 273.3 90.36 274.4 120.79" stroke-miterlimit="10" stroke-width="3"/><circle cx="272.6" cy="82.76" r="6.9" stroke-miterlimit="10" stroke-width="3"/><path d="M161.9,136.42s-14.86,3.68-16.47,16.59" stroke-miterlimit="10" stroke-width="3"/><path d="M313.87,120.79s18.87.61,18.19,15.63" stroke-miterlimit="10" stroke-width="3"/><polyline points="245.37 135.12 239.77 147.27 248.51 148.72" stroke-miterlimit="10" stroke-width="3"/></g><ellipse cx="252.85" cy="138.27" rx="2.48" ry="2.87" fill="var(--ill-line)"/><ellipse cx="237.37" cy="135.4" rx="2.48" ry="2.87" fill="var(--ill-line)"/><g fill="none" stroke="var(--ill-line)"><polyline points="176.89 414.47 144.42 436.7 213.64 436.7 211.42 420.56" stroke-miterlimit="10" stroke-width="3"/><polyline points="305.3 394.77 296.2 433.05 347.45 386.54 334.96 376.07" stroke-miterlimit="10" stroke-width="3"/><line x1="141.61" y1="115.83" x2="156.9" y2="82.76" stroke-miterlimit="10" stroke-width="3"/><circle cx="159.64" cy="75.86" r="3.65" stroke-miterlimit="10" stroke-width="2"/><line x1="160.73" y1="66.99" x2="163.66" y2="43.3" stroke-miterlimit="10" stroke-width="2"/><line x1="156.15" y1="67.63" x2="150.98" y2="55.42" stroke-miterlimit="10" stroke-width="2"/><line x1="152.5" y1="70.47" x2="133.45" y2="56.09" stroke-miterlimit="10" stroke-width="2"/><line x1="150.76" y1="74.76" x2="139.64" y2="73.39" stroke-miterlimit="10" stroke-width="2"/><line x1="151.4" y1="79.35" x2="129.42" y2="88.66" stroke-miterlimit="10" stroke-width="2"/><line x1="163.12" y1="84.1" x2="167.02" y2="93.31" stroke-miterlimit="10" stroke-width="2"/><line x1="166.77" y1="81.25" x2="185.82" y2="95.63" stroke-miterlimit="10" stroke-width="2"/><line x1="168.51" y1="76.96" x2="182.74" y2="78.72" stroke-miterlimit="10" stroke-width="2"/><line x1="167.87" y1="72.38" x2="189.85" y2="63.07" stroke-miterlimit="10" stroke-width="2"/><line x1="165.02" y1="68.73" x2="171.05" y2="60.74" stroke-miterlimit="10" stroke-width="2"/></g><polygon points="255.33 96.43 274.01 109.87 274.01 102.04 261.3 93.31 255.33 96.43" fill="var(--ill-line)"/></svg>